<svg xmlns="http://www.w3.org/2000/svg" version="1.1" xmlns:xlink="http://www.w3.org/1999/xlink" xmlns:svgjs="http://svgjs.dev/svgjs" width="1920" height="980" preserveAspectRatio="none" viewBox="0 0 1920 980"><g mask="url(&quot;#SvgjsMask1118&quot;)" fill="none"><path d="M -410.37044195360784,560 C -218.37,489.8 165.63,175.2 549.6295580463922,209 C 933.63,242.8 1125.63,692.6 1509.629558046392,729 C 1893.63,765.4 2387.56,397.2 2469.629558046392,391 C 2551.7,384.8 2029.93,636.6 1920,698" stroke="rgba(62, 15, 222, 0.58)" stroke-width="2"></path><path d="M -445.51807129284475,340 C -253.52,383.8 130.48,561.8 514.4819287071552,559 C 898.48,556.2 1090.48,321.6 1474.4819287071552,326 C 1858.48,330.4 2345.38,594.4 2434.481928707155,581 C 2523.59,567.6 2022.9,323.4 1920,259" stroke="rgba(62, 15, 222, 0.58)" stroke-width="2"></path><path d="M -903.7234251169255,535 C -711.72,518.8 -327.72,399.8 56.27657488307449,454 C 440.28,508.2 632.28,816.6 1016.2765748830745,806 C 1400.28,795.4 1795.53,440.4 1976.2765748830745,401 C 2157.02,361.6 1931.26,567.4 1920,609" stroke="rgba(62, 15, 222, 0.58)" stroke-width="2"></path><path d="M -769.8417709360297,813 C -577.84,736.2 -193.84,429.6 190.15822906397034,429 C 574.16,428.4 766.16,846.6 1150.1582290639703,810 C 1534.16,773.4 1956.19,246 2110.1582290639703,246 C 2264.13,246 1958.03,697.2 1920,810" stroke="rgba(62, 15, 222, 0.58)" stroke-width="2"></path><path d="M -862.2675222393435,377 C -670.27,458 -286.27,807.2 97.73247776065645,782 C 481.73,756.8 673.73,263 1057.7324777606564,251 C 1441.73,239 1845.28,725.2 2017.7324777606564,722 C 2190.19,718.8 1939.55,332.4 1920,235" stroke="rgba(62, 15, 222, 0.58)" stroke-width="2"></path><path d="M -1701.8827811497567,319 C -1509.88,403.6 -1125.88,745.2 -741.8827811497566,742 C -357.88,738.8 -165.88,319 218.11721885024338,303 C 602.12,287 837.74,666.2 1178.1172188502433,662 C 1518.49,657.8 1771.62,358 1920,282" stroke="rgba(62, 15, 222, 0.58)" stroke-width="2"></path></g><defs><mask id="SvgjsMask1118"><rect width="1920" height="980" fill="#ffffff"></rect></mask></defs></svg>