<?xml version="1.0" encoding="UTF-8"?>
<svg xmlns="http://www.w3.org/2000/svg" xmlns:xlink="http://www.w3.org/1999/xlink" viewBox="0 0 444.98 352.12">
  <defs>
    <style>
      .cls-1 {
        clip-path: url(#clippath-4);
      }

      .cls-1, .cls-2, .cls-3, .cls-4, .cls-5, .cls-6, .cls-7, .cls-8, .cls-9, .cls-10, .cls-11, .cls-12, .cls-13, .cls-14, .cls-15, .cls-16, .cls-17, .cls-18, .cls-19, .cls-20, .cls-21 {
        fill: none;
      }

      .cls-22, .cls-23 {
        opacity: .1;
      }

      .cls-22, .cls-24, .cls-25 {
        fill: #74471b;
      }

      .cls-2 {
        clip-path: url(#clippath-2);
      }

      .cls-26, .cls-27, .cls-28 {
        fill: #fff;
      }

      .cls-29 {
        opacity: .38;
      }

      .cls-29, .cls-30, .cls-23, .cls-31, .cls-32, .cls-33, .cls-34 {
        fill: #2b3448;
      }

      .cls-35, .cls-36 {
        fill: #dc903c;
      }

      .cls-3, .cls-31 {
        opacity: .37;
      }

      .cls-4 {
        opacity: .35;
      }

      .cls-5 {
        opacity: .41;
      }

      .cls-6, .cls-30 {
        opacity: .18;
      }

      .cls-27, .cls-33 {
        opacity: .11;
      }

      .cls-7 {
        opacity: .4;
      }

      .cls-8 {
        opacity: .54;
      }

      .cls-37 {
        opacity: .67;
      }

      .cls-37, .cls-38 {
        fill: #8bcde5;
      }

      .cls-9, .cls-32 {
        opacity: .23;
      }

      .cls-10 {
        opacity: .44;
      }

      .cls-11 {
        clip-path: url(#clippath-5);
      }

      .cls-39 {
        fill: #ecb751;
      }

      .cls-12 {
        opacity: .48;
      }

      .cls-13 {
        opacity: .22;
      }

      .cls-14 {
        isolation: isolate;
      }

      .cls-40 {
        fill: #de6c6b;
      }

      .cls-15 {
        opacity: .27;
      }

      .cls-16 {
        clip-path: url(#clippath-3);
      }

      .cls-17 {
        opacity: .31;
      }

      .cls-19 {
        stroke: #2b3448;
        stroke-miterlimit: 10;
      }

      .cls-20 {
        clip-path: url(#clippath);
      }

      .cls-41 {
        fill: #4d82a3;
      }

      .cls-36, .cls-24 {
        opacity: .26;
      }

      .cls-42 {
        fill: #5ca28b;
      }

      .cls-21 {
        clip-path: url(#clippath-1);
      }

      .cls-28 {
        mix-blend-mode: overlay;
        opacity: .2;
      }
    </style>
    <clipPath id="clippath">
      <path class="cls-18" d="m245.24,285.86s-13.05,26.17-4.1,50.82l107.07-34.62s-9.03-16.85-.6-37.64l-102.38,21.43Z"/>
    </clipPath>
    <clipPath id="clippath-1">
      <path class="cls-18" d="m353.12,228.6l-134.74,21.46s-7.82,24.78,0,38.43l138.53-23.47s-3.29-17.45-3.79-36.41Z"/>
    </clipPath>
    <clipPath id="clippath-2">
      <path class="cls-18" d="m337.44,168.12l-104.59,22.06s-15.97,29.94,4.49,48.41l101.3-27.95-1.21-42.52Z"/>
    </clipPath>
    <clipPath id="clippath-3">
      <path class="cls-18" d="m333.16,126.3l-119.27,15.47s-13.97,26.45,3.49,37.43l116.77-18.96s-1-35.43-1-33.93Z"/>
    </clipPath>
    <clipPath id="clippath-4">
      <polygon class="cls-18" points="310.08 57.14 264.18 69.75 264.18 93.7 264.18 96.7 309.44 82.35 310.08 57.14"/>
    </clipPath>
    <clipPath id="clippath-5">
      <path class="cls-18" d="m228.62,44.42s-8.09,11.28-1.72,22.81l81.42-13.49,1.23-23.54-80.93,14.22Z"/>
    </clipPath>
  </defs>
  <g class="cls-14">
    <g id="Layer_2" data-name="Layer 2">
      <g id="OBJECTS">
        <g>
          <ellipse class="cls-37" cx="220.68" cy="316.07" rx="215.53" ry="36.05"/>
          <g class="cls-4">
            <path class="cls-38" d="m220.68,280.02c-116.21,0-210.93,15.38-215.36,34.64-10.98-20.23-4.38-48.86,14.42-61.58,4.79-3.24,10.21-5.55,14.44-9.55,13.05-12.32,9.61-33.93,12.94-51.89,3.57-19.25,16.63-36.34,33.89-44.37,18.43-8.58,41.01-7.41,56.91-20.34,14.14-11.5,19.1-30.95,27.26-47.55,18.67-38.02,57.67-63.49,98.6-68.1,40.92-4.62,82.87,10.51,114.59,37.69,16.96,14.53,31.57,33,37.75,54.89,9.38,33.22-1.65,68.42-5.44,102.81-.52,4.69-.88,9.56.58,14.04,3.39,10.39,14.91,14.9,22.42,22.63,15.28,15.71,12.03,41.69,7.69,63.54l-5.18,9c-.68-19.81-96.91-35.84-215.52-35.84Z"/>
          </g>
        </g>
        <ellipse class="cls-37" cx="392.92" cy="317.92" rx="36.4" ry="6.33"/>
        <g>
          <polygon class="cls-38" points="70.16 37.02 65.52 23.38 51.76 19.11 65.88 14.24 70.37 0 75 13.64 88.76 17.9 74.35 23.12 70.16 37.02"/>
          <polygon class="cls-38" points="342.34 84.85 337.7 71.22 323.94 66.95 338.06 62.08 342.55 47.84 347.18 61.47 360.94 65.74 346.53 70.96 342.34 84.85"/>
          <polygon class="cls-26" points="384.19 93.78 381.82 86.83 374.81 84.65 382.01 82.17 384.29 74.91 386.66 81.86 393.67 84.04 386.32 86.7 384.19 93.78"/>
          <polygon class="cls-26" points="64.69 204.65 62.33 197.7 55.32 195.52 62.51 193.04 64.8 185.78 67.16 192.73 74.18 194.91 66.83 197.56 64.69 204.65"/>
          <polygon class="cls-38" points="359.73 110.81 357.36 103.86 350.35 101.68 357.54 99.2 359.83 91.94 362.2 98.89 369.21 101.07 361.86 103.73 359.73 110.81"/>
          <polygon class="cls-38" points="107.42 79.63 105.06 72.68 98.05 70.5 105.24 68.02 107.53 60.76 109.89 67.71 116.91 69.88 109.56 72.54 107.42 79.63"/>
          <path class="cls-38" d="m90.93,47.44c0,1.14-.93,2.07-2.07,2.07s-2.07-.93-2.07-2.07.93-2.07,2.07-2.07,2.07.93,2.07,2.07Z"/>
          <path class="cls-38" d="m411.46,145.47c0,1.14-.93,2.07-2.07,2.07s-2.07-.93-2.07-2.07.93-2.07,2.07-2.07,2.07.93,2.07,2.07Z"/>
          <path class="cls-38" d="m407.81,172.86c0,1.14-.93,2.07-2.07,2.07s-2.07-.93-2.07-2.07.93-2.07,2.07-2.07,2.07.93,2.07,2.07Z"/>
          <path class="cls-38" d="m384.07,168.11c0,1.14-.93,2.07-2.07,2.07s-2.07-.93-2.07-2.07.93-2.07,2.07-2.07,2.07.93,2.07,2.07Z"/>
          <path class="cls-38" d="m57.17,125.28c0,1.14-.93,2.07-2.07,2.07s-2.07-.93-2.07-2.07.93-2.07,2.07-2.07,2.07.93,2.07,2.07Z"/>
          <path class="cls-38" d="m44.78,110.13c0,1.14-.93,2.07-2.07,2.07s-2.07-.93-2.07-2.07.93-2.07,2.07-2.07,2.07.93,2.07,2.07Z"/>
          <path class="cls-38" d="m330.04,33.28c0,1.14-.93,2.07-2.07,2.07s-2.07-.93-2.07-2.07.93-2.07,2.07-2.07,2.07.93,2.07,2.07Z"/>
        </g>
        <g>
          <g>
            <g class="cls-12">
              <path class="cls-41" d="m110.63,200c-10.55-15.28-20.34-31.13-28.68-47.73-6.7-13.32-12.44-27.14-16.81-41.4.33-9.84.66-19.68.99-29.52.39-11.7.25-24.83-8-33.12-2.02-2.03-4.87-3.73-7.63-2.96-3.23.9-4.68,4.61-5.33,7.9-4.02,20.37,4.85,40.97,16.77,58.2,1.37,4.5,2.87,8.96,4.51,13.37,6.42,17.31,14.74,33.88,24.15,49.75,5.33,8.98,11.02,17.75,16.95,26.34.54.78,3.36-.42,3.08-.82Z"/>
            </g>
            <g class="cls-12">
              <path class="cls-41" d="m100.88,192.2c-5.04-12.75-9.44-25.78-12.67-39.11-2.6-10.69-4.42-21.6-5.18-32.58,1.88-7.02,3.76-14.04,5.64-21.07,2.23-8.35,4.32-17.82-.23-25.16-1.11-1.8-2.88-3.49-4.99-3.4-2.47.11-4.13,2.54-5.15,4.79-6.29,13.98-3.34,30.27,2.35,44.65.23,3.46.57,6.92,1.01,10.36,1.73,13.52,4.95,26.82,9.08,39.81,2.33,7.35,4.96,14.6,7.8,21.77.26.65,2.48.26,2.35-.08Z"/>
            </g>
            <g class="cls-12">
              <path class="cls-41" d="m139.22,194.25c-13.17-3.81-26.16-8.3-38.69-13.89-10.05-4.49-19.79-9.71-28.94-15.82-4.41-5.78-8.81-11.56-13.22-17.34-5.24-6.87-11.45-14.32-20.04-15.2-2.1-.22-4.53.14-5.75,1.87-1.43,2.02-.52,4.82.64,7.01,7.21,13.53,21.91,21.16,36.77,25.45,2.88,1.93,5.82,3.78,8.82,5.54,11.76,6.9,24.25,12.49,37.05,17.17,7.24,2.65,14.59,5,21.99,7.15.67.19,1.72-1.81,1.37-1.91Z"/>
            </g>
          </g>
          <g>
            <g class="cls-12">
              <path class="cls-41" d="m312.4,222.95c12.29-10.46,24.07-21.55,34.81-33.61,8.62-9.67,16.55-19.98,23.42-30.97l5.81-25c2.3-9.91,5.37-20.9,14.17-26,2.15-1.25,4.93-2.03,7.07-.77,2.51,1.48,2.89,4.92,2.7,7.83-1.2,18-13.28,33.3-27.16,45.08-2.16,3.47-4.42,6.87-6.79,10.21-9.28,13.09-19.99,25.12-31.46,36.33-6.49,6.34-13.24,12.42-20.15,18.3-.63.53-2.72-1.11-2.4-1.38Z"/>
            </g>
            <g class="cls-12">
              <path class="cls-41" d="m322.34,218.6c7.1-9.57,13.72-19.51,19.43-29.98,4.58-8.39,8.57-17.13,11.68-26.18,0-6.32,0-12.63,0-18.95,0-7.51.38-15.93,5.85-21.06,1.34-1.26,3.2-2.28,4.96-1.73,2.05.65,2.9,3.06,3.24,5.18,2.14,13.15-4,26.16-12.02,36.95-.97,2.85-2.04,5.68-3.18,8.47-4.49,10.96-10.19,21.4-16.57,31.37-3.61,5.64-7.45,11.14-11.44,16.52-.36.49-2.14-.34-1.96-.6Z"/>
            </g>
            <g class="cls-12">
              <path class="cls-41" d="m289.69,211.7c11.91-.24,23.83-1.08,35.6-2.96,9.44-1.51,18.8-3.7,27.85-6.77,5-3.86,10-7.72,15-11.58,5.94-4.59,12.83-9.44,20.24-8.25,1.81.29,3.77,1.14,4.4,2.86.74,2.02-.65,4.16-2.11,5.74-9.1,9.73-23.15,12.83-36.59,13.09-2.85.98-5.74,1.86-8.65,2.66-11.42,3.15-23.17,5.03-34.96,6.08-6.67.59-13.37.92-20.07,1.05-.61.01-1.04-1.91-.72-1.91Z"/>
            </g>
          </g>
        </g>
        <g>
          <path class="cls-35" d="m428.45,284.36c0-2.55-.31-5.03-.88-7.4h-.53c-1.02-4.43-14.34-7.93-30.63-7.93s-30.7,3.8-30.7,8.48c0,.14.01.28.04.42-.43,2.08-.68,4.23-.68,6.44,0,12.91,7.73,24.01,18.81,28.95-2.69.73-4.34,1.69-4.34,2.74,0,2.28,7.71,4.13,17.22,4.13s17.22-1.85,17.22-4.13c0-1.05-1.65-2.01-4.34-2.74,11.08-4.94,18.81-16.04,18.81-28.95Z"/>
          <path class="cls-33" d="m428.45,284.36c0-2.55-.31-5.03-.88-7.4h-.53c-.34-1.45-2-2.81-4.66-3.97,1.63,2.48,2.68,5.35,2.93,8.61.65,8.28-4.23,16.96-11.09,21.42-6.91,4.49-15.83,4.77-23.61,2.75-11.4-2.95-21.37-10.97-25.54-21.41h0c0,12.91,7.73,24.02,18.81,28.95-2.69.73-4.34,1.69-4.34,2.74,0,2.28,7.71,4.13,17.22,4.13s17.22-1.85,17.22-4.13c0-1.05-1.65-2.01-4.34-2.74,11.08-4.94,18.81-16.04,18.81-28.95Z"/>
          <ellipse class="cls-25" cx="396.42" cy="277.51" rx="24.85" ry="6.87"/>
          <g>
            <path class="cls-42" d="m396.61,280.85c-4.81-2.95-9.69-6-13.33-10.31s-5.93-10.15-4.64-15.65c.63-2.69,2.08-5.24,2.03-8-.12-5.83-6.42-9.23-9.89-13.92-4.17-5.64-4.16-13.23-3.97-20.24,2.56,7.65,11.33,10.9,17.51,16.09,6.84,5.75,10.73,14.39,12.4,23.17s1.3,17.8.94,26.72l-1.05,2.13Z"/>
            <g class="cls-6">
              <path class="cls-34" d="m389.45,243.32c-4.66-11.83-16.2-18.47-22.67-28.71-.11,6.47.21,13.23,4.01,18.37,3.47,4.68,9.77,8.09,9.89,13.92.06,2.76-1.4,5.31-2.03,8-1.29,5.49.99,11.34,4.64,15.65,2.87,3.38,6.49,5.99,10.25,8.38.75-12.15.33-24.41-4.08-35.61Z"/>
            </g>
            <path class="cls-42" d="m396.59,280.81c-6.29-7.58-7.93-18.73-4.09-27.8,2.65-6.25,7.68-11.66,8.34-18.41.33-3.36-.48-6.72-.57-10.09-.12-4.68,1.19-9.39,3.72-13.34-1.32,13.86,8.54,26.69,8.5,40.61-.03,10.72-15.9,29.02-15.9,29.02Z"/>
            <g class="cls-6">
              <path class="cls-34" d="m404.11,228.5c.28,10.92-1.29,21.16-3.82,31.74-1.36,5.69-1.82,10.67-.92,15.73,7.92-5.29,13.09-14.62,13.12-24.17.03-11.75-6.99-22.72-8.38-34.2-.29,3.62-.09,7.32,0,10.9Z"/>
            </g>
            <g>
              <path class="cls-42" d="m396.5,280.78c.05-8.93.45-18.78,6.57-25.29,5.13-5.47,13.45-7.5,17.65-13.71,3.65-5.41,3.2-12.49,4.71-18.84,1.54-6.47,5.29-12.39,10.47-16.55.58,6.5,1.16,12.99,1.73,19.49.69,7.75,1.35,15.75-1.04,23.16-2.54,7.85-8.35,14.32-15.07,19.12s-14.36,8.1-21.94,11.37l-3.08,1.26Z"/>
              <g class="cls-6">
                <path class="cls-34" d="m436.39,211.91c-2.44,6.51-3.48,13.56-5.66,20.14-3.31,10-8.82,18.25-16,25.92-6.38,6.81-11.38,12.18-13.5,20.83,7.03-3.04,14.06-6.21,20.29-10.65,6.72-4.79,12.53-11.26,15.07-19.12,2.39-7.41,1.73-15.41,1.04-23.16-.41-4.65-.83-9.31-1.24-13.96Z"/>
              </g>
            </g>
          </g>
        </g>
        <path class="cls-38" d="m77.69,287.14l-21.69,7.09s169.33,49.06,177.25,52.22c7.91,3.17,131.35-39.56,131.35-39.56l-34.82-11.08-252.09-8.68"/>
        <g>
          <path class="cls-34" d="m142.96,330.2l-105.48-24.8c-3.04-.71-6.1,1.19-6.82,4.22h0c-.71,3.04,1.19,6.1,4.22,6.82l105.48,24.8,2.6-11.04Z"/>
          <path class="cls-28" d="m30.61,311.95c.4,2.14,2.02,3.97,4.27,4.5l105.48,24.8.78-3.31-110.53-25.98Z"/>
          <rect class="cls-39" x="41.56" y="312.12" width="11.65" height="3.01" transform="translate(-268.76 287.98) rotate(-76.77)"/>
          <rect class="cls-39" x="89.49" y="323.38" width="11.65" height="3.01" transform="translate(-242.76 343.32) rotate(-76.77)"/>
          <rect class="cls-39" x="60.28" y="297.42" width="1.5" height="34.58" transform="translate(-259.29 302.1) rotate(-76.77)"/>
          <polygon class="cls-39" points="140.36 341.24 150.53 339.61 151.39 335.95 142.96 330.2 140.36 341.24"/>
        </g>
        <g>
          <path class="cls-40" d="m352.87,304.39l-8.56-4c-10.98-5.99-3.99-41.92-3.99-41.92l-98.17,28.41-166.32-41.38c-5.49,20.79-1,48.18-1,48.18l153.75,41.98-.05.17,13.47,3.49c114.78-33.44,110.86-34.93,110.86-34.93Z"/>
          <polygon class="cls-40" points="244.32 287.6 354.61 254.66 188.43 219.23 75.83 245.49 244.32 287.6"/>
          <path class="cls-31" d="m78.19,292.22c-.82-3.32-1.32-6.71-1.66-10.11-.35-3.4-.46-6.83-.39-10.26.1-3.43.43-6.85,1.03-10.22.64-3.37,1.59-6.68,2.95-9.82-.41,1.66-.97,3.27-1.24,4.95-.41,1.65-.63,3.33-.9,5-.41,3.36-.71,6.73-.78,10.12-.09,3.39-.01,6.78.14,10.17.08,1.7.2,3.39.35,5.08.11,1.7.31,3.39.5,5.08Z"/>
          <path class="cls-31" d="m233.48,333.95c-.82-3.32-1.32-6.71-1.66-10.11-.35-3.4-.46-6.83-.39-10.26.1-3.43.43-6.85,1.03-10.22.64-3.37,1.59-6.68,2.95-9.82-.41,1.66-.97,3.27-1.24,4.95-.41,1.65-.63,3.33-.9,5-.41,3.36-.71,6.73-.78,10.12-.09,3.39-.01,6.78.14,10.17.08,1.7.2,3.39.35,5.08.11,1.7.31,3.39.5,5.08Z"/>
          <path class="cls-31" d="m85.07,250.94c12,2.96,23.97,6.03,35.93,9.11l35.86,9.38,35.8,9.62,17.88,4.9,17.85,5-17.98-4.5-17.95-4.61-35.86-9.39-35.8-9.62c-11.92-3.25-23.84-6.52-35.73-9.9Z"/>
          <g class="cls-5">
            <path class="cls-26" d="m115.95,301.96l-32.96-9.65,1.88-37.71,32.42,8.57-1.35,38.78Zm-31.84-10l30.72,8.98,1.32-37.39-30.24-8.01-1.8,36.42Z"/>
            <path class="cls-26" d="m100.08,278.6l-15.35-13.93,16.16-5.27,15.72,13.94-16.54,5.26Zm-13.83-13.52l13.87,12.57,14.91-4.75-14.17-12.58-14.6,4.76Z"/>
            <path class="cls-26" d="m99.11,288.59l-15.4-14.15,16.22-5.23,15.78,14.16-16.6,5.21Zm-13.87-13.72l13.91,12.77,14.97-4.7-14.22-12.78-14.66,4.72Z"/>
            <path class="cls-26" d="m98.76,296.84l-15.45-14.33,16.28-5.19,15.83,14.35-16.66,5.17Zm-13.92-13.89l13.96,12.93,15.02-4.66-14.27-12.95-14.71,4.68Z"/>
          </g>
          <g class="cls-5">
            <path class="cls-26" d="m152.3,312.46l-32.96-9.65,1.88-37.71,32.42,8.57-1.35,38.78Zm-31.84-10l30.72,8.98,1.32-37.39-30.24-8.01-1.8,36.42Z"/>
            <path class="cls-26" d="m136.44,289.1l-15.35-13.93,16.16-5.27,15.72,13.94-16.54,5.26Zm-13.83-13.52l13.87,12.57,14.91-4.75-14.17-12.58-14.6,4.76Z"/>
            <path class="cls-26" d="m135.47,299.09l-15.4-14.15,16.22-5.23,15.78,14.16-16.6,5.21Zm-13.87-13.72l13.91,12.77,14.97-4.7-14.22-12.78-14.66,4.72Z"/>
            <path class="cls-26" d="m135.12,307.34l-15.45-14.33,16.28-5.19,15.83,14.35-16.66,5.17Zm-13.92-13.89l13.96,12.93,15.02-4.66-14.27-12.95-14.71,4.68Z"/>
          </g>
          <g class="cls-5">
            <path class="cls-26" d="m189.69,322.97l-32.96-9.65,1.88-37.71,32.42,8.57-1.35,38.78Zm-31.84-10l30.72,8.98,1.32-37.39-30.24-8.01-1.8,36.42Z"/>
            <path class="cls-26" d="m173.83,299.6l-15.35-13.93,16.16-5.27,15.72,13.94-16.54,5.26Zm-13.83-13.52l13.87,12.57,14.91-4.75-14.17-12.58-14.6,4.76Z"/>
            <path class="cls-26" d="m172.86,309.59l-15.4-14.15,16.22-5.23,15.78,14.16-16.6,5.21Zm-13.87-13.72l13.91,12.77,14.97-4.7-14.22-12.78-14.66,4.72Z"/>
            <path class="cls-26" d="m172.51,317.84l-15.45-14.33,16.28-5.19,15.83,14.35-16.66,5.17Zm-13.92-13.89l13.96,12.93,15.02-4.66-14.27-12.95-14.71,4.68Z"/>
          </g>
          <g class="cls-5">
            <path class="cls-26" d="m227.12,332.93l-32.96-9.65,1.88-37.71,32.42,8.57-1.35,38.78Zm-31.84-10l30.72,8.98,1.32-37.39-30.24-8.01-1.8,36.42Z"/>
            <path class="cls-26" d="m211.26,309.57l-15.35-13.93,16.16-5.27,15.72,13.94-16.54,5.26Zm-13.83-13.52l13.87,12.57,14.91-4.75-14.17-12.58-14.6,4.76Z"/>
            <path class="cls-26" d="m210.29,319.56l-15.4-14.15,16.22-5.23,15.78,14.16-16.6,5.21Zm-13.87-13.72l13.91,12.77,14.97-4.7-14.22-12.78-14.66,4.72Z"/>
            <path class="cls-26" d="m209.94,327.81l-15.45-14.33,16.28-5.19,15.83,14.35-16.66,5.17Zm-13.92-13.89l13.96,12.93,15.02-4.66-14.27-12.95-14.71,4.68Z"/>
          </g>
          <g class="cls-20">
            <path class="cls-26" d="m245.24,285.86s-13.05,26.17-4.1,50.82l107.07-34.62s-6.98-23.61,1.46-44.39l-104.43,28.18Z"/>
            <path class="cls-22" d="m326.93,304.89c-14.77,5.65-29.51,10.14-45.36,11.32-15.7,1.17-31.76-2.72-41.41-15.57-2.35,9.77-3.71,23.12.98,36.05l107.07-34.62s-.53-1.81-1.13-4.87c-6.77,2.41-13.45,5.12-20.15,7.68Z"/>
            <g class="cls-13">
              <rect class="cls-25" x="233.98" y="282.68" width="119" height=".8" transform="translate(-54.2 70.05) rotate(-12.47)"/>
              <rect class="cls-25" x="234.15" y="290.04" width="119" height=".8" transform="translate(-59.35 76.02) rotate(-13.41)"/>
              <rect class="cls-25" x="233.21" y="298.6" width="119" height=".8" transform="translate(-61.35 76.02) rotate(-13.41)"/>
              <rect class="cls-25" x="232.72" y="305.2" width="119" height=".8" transform="translate(-66.51 81.77) rotate(-14.32)"/>
              <rect class="cls-25" x="233.6" y="313.35" width="119" height=".8" transform="translate(-75.9 94.24) rotate(-16.2)"/>
            </g>
          </g>
          <path class="cls-27" d="m238.8,290.72l-163.49-42.58s-2.63,11.04-1.05,17.35l163.49,43.63,4.73-17.87-3.68-.53Z"/>
          <path class="cls-23" d="m74.83,293.67l167.18,45.64s-3.74-15.48-3.74-17.05l-164.01-41.53s-.96,10.11.57,12.94Z"/>
        </g>
        <g>
          <path class="cls-39" d="m105.6,204.65s-2.99,18.46-.5,30.44c0,0,103.8,56.39,111.28,58.39,7.49,2,150.71-25.45,150.71-25.45l-18.96-4.49-.9-33.76,17.37-3.16-120.77-48.41-138.23,26.45Z"/>
          <path class="cls-26" d="m353.12,228.6l-134.74,21.46s-7.82,24.78,0,38.43l138.53-23.47s-3.29-17.45-3.79-36.41Z"/>
          <path class="cls-22" d="m284.99,273.28c-23.3.88-48.78.07-69.36-10.41-1.14,8.12-1.36,18.42,2.76,25.61l138.53-23.47s-.05-.27-.14-.77c-23.7,4.71-47.66,8.12-71.79,9.03Z"/>
          <g class="cls-4">
            <g>
              <polygon class="cls-19" points="116.63 211.26 110.72 208.94 107.79 221.14 110.45 235.55 116.19 238.54 119.44 226.47 116.63 211.26"/>
              <polygon class="cls-34" points="114.84 218.27 112.24 217.15 110.9 222.56 112.1 229.07 114.67 230.32 116.08 224.93 114.84 218.27"/>
              <polygon class="cls-19" points="119.48 240.26 107.67 234.1 107.86 207.57 120.02 212.34 119.48 240.26"/>
            </g>
            <g>
              <polygon class="cls-19" points="153.02 225.56 144.99 222.4 140.54 236.13 143.64 252.84 151.38 256.88 156.33 243.36 153.02 225.56"/>
              <polygon class="cls-34" points="150.3 233.48 146.76 231.96 144.72 238.05 146.13 245.61 149.61 247.3 151.74 241.26 150.3 233.48"/>
              <polygon class="cls-19" points="155.86 259.21 139.9 250.9 141.13 220.6 157.69 227.09 155.86 259.21"/>
            </g>
            <g>
              <polygon class="cls-19" points="204.29 245.7 192.71 241.15 185.68 256.8 189.39 276.68 200.41 282.42 208.3 267.15 204.29 245.7"/>
              <polygon class="cls-34" points="199.92 254.78 194.84 252.6 191.62 259.52 193.3 268.55 198.27 270.96 201.67 264.12 199.92 254.78"/>
              <polygon class="cls-19" points="206.84 285.77 184.12 273.94 187.21 238.65 211.1 248.01 206.84 285.77"/>
            </g>
            <polygon class="cls-34" points="130.41 246.07 127.82 244.72 128.63 215.71 131.31 216.76 130.41 246.07"/>
            <polygon class="cls-34" points="169.97 266.7 166.57 264.93 168.87 231.47 172.42 232.86 169.97 266.7"/>
          </g>
          <path class="cls-27" d="m105.6,204.65l112.78,45.41s-3.62,13.75-3.35,16.98l-110.68-51.44s.6-9.79,1.24-10.96Z"/>
          <path class="cls-36" d="m105.1,235.09l111.28,58.39s-4.58-6.78-4.31-18.9l-107.72-49.28s.14,8.54.74,9.79Z"/>
          <g class="cls-21">
            <g>
              <g class="cls-10">
                <rect class="cls-25" x="211.52" y="244.82" width="146.15" height=".53" transform="translate(-36.28 49.89) rotate(-9.42)"/>
              </g>
              <g class="cls-10">
                <rect class="cls-25" x="212" y="250.82" width="146.15" height=".53" transform="translate(-37.26 50.05) rotate(-9.42)"/>
              </g>
              <g class="cls-10">
                <rect class="cls-25" x="211.45" y="257.45" width="146.15" height=".53" transform="translate(-38.35 50.05) rotate(-9.42)"/>
              </g>
              <g class="cls-10">
                <rect class="cls-25" x="211.73" y="264.07" width="146.15" height=".53" transform="translate(-39.47 50.25) rotate(-9.43)"/>
              </g>
              <g class="cls-10">
                <rect class="cls-25" x="212.02" y="271.31" width="146.15" height=".53" transform="translate(-40.66 50.4) rotate(-9.43)"/>
              </g>
            </g>
          </g>
        </g>
        <g>
          <path class="cls-42" d="m88.14,150.76s-10.98,21.96-.5,46.91l147.71,45.91,111.78-30.67-9.43-2.36-2.1-41.91,10.53-2.91-139.73-41.92-118.27,26.95Z"/>
          <path class="cls-26" d="m337.44,168.12l-104.59,22.06s-15.97,29.94,4.49,48.41l101.3-27.95-1.21-42.52Z"/>
          <path class="cls-22" d="m293.92,177.61c3.81,0,7.62-.14,11.42-.44,1.71-.14,3.41-.32,5.11-.51.3-.04.53-.06.69-.08.39-.06.77-.12,1.16-.18,6.42-1.1,12.77-2.44,19.08-4.1,2.05-.54,4.09-1.11,6.13-1.69l-.07-2.49-44.94,9.48c.47,0,.94.02,1.41.02Z"/>
          <path class="cls-22" d="m291.84,214.79c-14.97-.14-29.94-1.71-44.87-2.74-6.66-.46-13.32-1.14-19.79-2.49-.97,9.39.66,20.45,10.18,29.04l101.3-27.95-.06-2.11c-15.23,3.8-30.69,6.4-46.76,6.25Z"/>
          <path class="cls-29" d="m89.61,195.39c-1.55-3.28-2.46-6.83-3.08-10.41-.62-3.58-.86-7.23-.8-10.87.02-.91.1-1.82.14-2.72l.08-1.36.16-1.35.34-2.7.51-2.68c.3-1.79.85-3.53,1.28-5.29.52-1.73,1.14-3.44,1.75-5.14-.85,3.52-1.71,7.01-2.22,10.57l-.39,2.66-.26,2.68-.14,1.34-.07,1.34c-.04.89-.1,1.79-.12,2.68-.09,3.58.12,7.16.54,10.72.19,1.78.52,3.55.89,5.31.36,1.76.81,3.5,1.39,5.22Z"/>
          <path class="cls-29" d="m224.26,236.42c-1.55-3.28-2.46-6.83-3.08-10.41-.62-3.58-.86-7.23-.8-10.87.02-.91.1-1.82.14-2.72l.08-1.36.16-1.35.34-2.7.51-2.68c.3-1.79.85-3.53,1.28-5.29.53-1.73,1.14-3.44,1.75-5.14-.85,3.52-1.71,7.01-2.22,10.57l-.39,2.66-.26,2.68-.14,1.34-.07,1.34c-.04.89-.11,1.79-.12,2.68-.09,3.58.12,7.16.54,10.72.19,1.78.52,3.55.89,5.31.36,1.76.81,3.5,1.39,5.22Z"/>
          <g class="cls-9">
            <polygon class="cls-34" points="101.95 185.31 122.86 188.84 104.58 174.51 94.58 175.84 101.95 185.31"/>
            <polygon class="cls-34" points="104.84 173.84 124.66 189.32 111.94 165.69 101.37 161.24 104.84 173.84"/>
            <polygon class="cls-34" points="101.87 186.41 124.2 189.8 104.44 197.23 95.02 192.91 101.87 186.41"/>
          </g>
          <path class="cls-32" d="m133.98,167.77s-9.19,21.59-3.2,42.38l23.19,8s-5.2-34.78,5.2-42.78l-25.19-7.6Z"/>
          <path class="cls-32" d="m185.55,183.36s-9.59,23.59-3.2,43.18l7.2,2.8s-2-32.78,5.2-43.58l-9.19-2.4Z"/>
          <g class="cls-2">
            <g class="cls-15">
              <rect class="cls-25" x="226.74" y="181.44" width="122.86" height=".53" transform="translate(-31.88 64.97) rotate(-12.2)"/>
              <rect class="cls-25" x="224.84" y="187.67" width="122.86" height=".53" transform="translate(-34.14 67.07) rotate(-12.62)"/>
              <rect class="cls-25" x="223.63" y="193.88" width="122.86" height=".53" transform="translate(-37.56 72.2) rotate(-13.55)"/>
              <rect class="cls-25" x="223.1" y="199.73" width="122.86" height=".53" transform="translate(-38.94 72.23) rotate(-13.55)"/>
              <rect class="cls-25" x="223.25" y="205.56" width="122.86" height=".53" transform="translate(-40.3 72.43) rotate(-13.55)"/>
              <rect class="cls-25" x="224.08" y="211.03" width="122.86" height=".53" transform="translate(-41.56 72.77) rotate(-13.55)"/>
              <polygon class="cls-25" points="231.12 236.27 230.99 235.76 350.01 205.29 350.14 205.8 231.12 236.27"/>
              <rect class="cls-25" x="226.61" y="215.77" width="122.86" height=".53" transform="translate(-42.59 73.48) rotate(-13.55)"/>
            </g>
          </g>
          <path class="cls-27" d="m88.14,150.76l144.72,39.42s-5.73,13.97-6.53,20.77l-143.12-43.98s2.27-13.65,4.93-16.22Z"/>
          <path class="cls-23" d="m86.4,197.36l148.95,46.22s-8.32-3.24-11.03-17.84l-141.12-42.78s2,11.99,3.2,14.39Z"/>
        </g>
        <g>
          <path class="cls-34" d="m99.61,101.85s-3.49,29.94-.5,37.93l111.28,45.41,134.24-23.45-13.47-2.99-1.58-32.27,11.79-1.31-133.97-39.28-107.79,15.97Z"/>
          <path class="cls-26" d="m333.16,126.3l-119.27,15.47s-13.97,26.45,3.49,37.43l116.77-18.96s-1-35.43-1-33.93Z"/>
          <path class="cls-22" d="m286.28,166.44c-14.63-.06-29.47-1.33-44.05-2.59-8.68-.75-17.64-1.75-25.51-5.78-2.55-1.3-4.84-2.95-7.02-4.75-2.02,8.52-2.19,19.67,7.68,25.87l79.68-12.94c-3.6.13-7.2.2-10.79.18Z"/>
          <g class="cls-8">
            <path class="cls-39" d="m108.64,124.92c-.02.33-.43.43-.93.24-.5-.19-.89-.61-.87-.93.01-.32.43-.43.92-.24.5.19.89.61.87.94Z"/>
            <path class="cls-39" d="m122.99,120.98c-.02.34-.47.46-1,.26-.53-.19-.95-.63-.93-.96.02-.34.46-.46,1-.26.54.19.96.63.94.97Z"/>
            <path class="cls-39" d="m121.97,139.56c-.02.33-.46.43-.99.21-.53-.22-.94-.66-.92-.99.02-.33.46-.43.99-.21.53.21.94.66.92.99Z"/>
            <path class="cls-39" d="m137.2,136.05c-.02.35-.5.45-1.07.23-.57-.22-1.01-.68-.99-1.02.02-.35.5-.45,1.07-.23.57.22,1.01.68.99,1.02Z"/>
            <path class="cls-39" d="m103.88,107.9l-.65,15.01-.14.05.13.16-.62,14.25,38.3,16.17,2.13-32.02-39.15-13.62Zm19.64,8.09l7.4,9.65-8.7,3.46.31-5.63-1.13-.42-.3,5.46-7.11-8.79,9.53-3.74Zm-10.19,2.92l-7.89-9.76,17.29,6.04-9.4,3.72Zm11.04-3.14l16.69,5.83-9.35,3.72-7.34-9.56Zm-1.67,14.27l8.89-3.51,8.67,11.32-9.21,2.99-8.04-9.95,9.79,3.78.04-.73-10.13-3.9Zm-1.98-.76l-10.1-3.89-.03.69,9.75,3.77-8.1,3.23-7.82-9.6,8.83-3.46,7.47,9.26Zm.26,1.44l-.34,6.34,1.12.45.36-6.51,8.14,10.09-9.09,2.94-8.25-10.13,8.06-3.19Zm-.69,13.41l-16.1-6.77,8.02-3.17,8.08,9.94Zm10.66-2.16l8.12,10.06-17.08-7.18,8.97-2.88Zm.8-.26l8.85-2.84-.84,12.75-8.01-9.91Zm.64-15.5l9.29-3.67-.96,14.52-8.33-10.85Zm-27.53-16.6l7.74,9.59-8.31,3.28.57-12.88Zm6.68,23.75l-7.87,3.13.54-12.15,7.33,9.02Z"/>
          </g>
          <g class="cls-8">
            <path class="cls-39" d="m165.95,145.77c-.02.33-.43.43-.93.24-.5-.19-.89-.61-.87-.93.01-.32.43-.43.92-.24.5.19.89.61.87.94Z"/>
            <path class="cls-39" d="m180.31,141.82c-.02.34-.47.46-1,.26-.53-.19-.95-.63-.93-.96.02-.34.46-.46,1-.26.54.19.96.63.94.97Z"/>
            <path class="cls-39" d="m179.29,160.4c-.02.33-.46.43-.99.21-.53-.22-.94-.66-.92-.99.02-.33.46-.43.99-.21.53.21.94.66.92.99Z"/>
            <path class="cls-39" d="m194.51,156.9c-.02.35-.5.45-1.07.23-.57-.22-1.01-.68-.99-1.02.02-.35.5-.45,1.07-.23.57.22,1.01.68.99,1.02Z"/>
            <path class="cls-39" d="m161.2,128.75l-.65,15.01-.14.05.13.16-.62,14.25,38.3,16.17,2.13-32.02-39.15-13.62Zm19.64,8.09l7.4,9.65-8.7,3.46.31-5.63-1.13-.42-.3,5.46-7.11-8.79,9.53-3.74Zm-10.19,2.92l-7.89-9.76,17.29,6.04-9.4,3.72Zm11.04-3.14l16.69,5.83-9.35,3.72-7.34-9.56Zm-1.67,14.27l8.89-3.51,8.67,11.32-9.21,2.99-8.04-9.95,9.79,3.78.04-.73-10.13-3.9Zm-1.98-.76l-10.1-3.89-.03.69,9.75,3.77-8.1,3.23-7.82-9.6,8.83-3.46,7.47,9.26Zm.26,1.44l-.34,6.34,1.12.45.36-6.51,8.14,10.09-9.09,2.94-8.25-10.13,8.06-3.19Zm-.69,13.41l-16.1-6.77,8.02-3.17,8.08,9.94Zm10.66-2.16l8.12,10.06-17.08-7.18,8.97-2.88Zm.8-.26l8.85-2.84-.84,12.75-8.01-9.91Zm.64-15.5l9.29-3.67-.96,14.52-8.33-10.85Zm-27.53-16.6l7.74,9.59-8.31,3.28.57-12.88Zm6.68,23.75l-7.87,3.13.54-12.15,7.33,9.02Z"/>
          </g>
          <g class="cls-16">
            <g>
              <g class="cls-17">
                <rect class="cls-25" x="206.15" y="148.01" width="136.41" height=".53" transform="translate(-17.26 37.74) rotate(-7.63)"/>
              </g>
              <g class="cls-17">
                <rect class="cls-25" x="206.15" y="156.47" width="136.41" height=".53" transform="translate(-18.38 37.82) rotate(-7.63)"/>
              </g>
              <g class="cls-17">
                <polygon class="cls-25" points="206.89 175.2 206.82 174.68 341.83 155.16 341.9 155.69 206.89 175.2"/>
              </g>
              <g class="cls-17">
                <rect class="cls-25" x="206.15" y="139.56" width="136.41" height=".53" transform="translate(-14.5 33.12) rotate(-6.73)"/>
              </g>
            </g>
          </g>
          <path class="cls-39" d="m239.43,143.77s15.21,22.54,11.83,50.71l7.32-6.2,5.63,5.63s.56-38.31-9.58-51.27l-15.21,1.13Z"/>
          <path class="cls-27" d="m99.61,101.85s111.65,35.73,111.65,37.42-7.32,13.52-5.63,24.79l-107.05-42.26,1.04-19.95Z"/>
        </g>
        <g>
          <rect class="cls-35" x="126.44" y="99.69" width="203.11" height="32.44"/>
          <rect class="cls-33" x="126.44" y="125.18" width="203.11" height="6.95"/>
          <rect class="cls-27" x="126.44" y="99.69" width="203.11" height="11.97"/>
          <rect class="cls-24" x="137.45" y="99.69" width="17.85" height="32.44"/>
          <rect class="cls-24" x="168.05" y="99.69" width="3.03" height="32.44"/>
          <rect class="cls-24" x="183.83" y="99.69" width="101.62" height="32.44"/>
          <rect class="cls-24" x="298.2" y="99.69" width="12.61" height="32.44"/>
          <polygon class="cls-35" points="126.44 99.69 124.94 74.24 311.58 72.74 329.55 99.69 126.44 99.69"/>
        </g>
        <g>
          <g>
            <polygon class="cls-40" points="135.92 56.78 135.92 85.72 264.67 99.69 313.58 84.22 307.09 81.73 307.59 58.27 312.58 56.28 192.31 45.3 135.92 56.78"/>
            <polygon class="cls-26" points="310.08 57.14 264.18 69.75 264.18 93.7 264.18 96.7 309.44 82.35 310.08 57.14"/>
            <g>
              <rect class="cls-39" x="197.21" y="11.85" width="1.06" height="114.54" transform="translate(106.69 257.77) rotate(-83.5)"/>
              <rect class="cls-39" x="196.64" y="18.61" width="1.06" height="114.54" transform="translate(99.47 263.21) rotate(-83.5)"/>
              <rect class="cls-39" x="196.64" y="25.37" width="1.06" height="114.54" transform="translate(92.75 269.2) rotate(-83.5)"/>
              <rect class="cls-39" x="196.64" y="31.57" width="1.06" height="114.54" transform="translate(86.6 274.7) rotate(-83.5)"/>
            </g>
            <g class="cls-1">
              <g class="cls-3">
                <polygon class="cls-25" points="261.56 73.95 261.43 73.44 316.46 58.65 316.59 59.17 261.56 73.95"/>
              </g>
              <g class="cls-3">
                <polygon class="cls-25" points="262.13 80.72 261.99 80.2 317.02 65.42 317.16 65.93 262.13 80.72"/>
              </g>
              <g class="cls-3">
                <polygon class="cls-25" points="262.22 86.7 262.08 86.19 317.11 71.4 317.25 71.91 262.22 86.7"/>
              </g>
              <g class="cls-3">
                <polygon class="cls-25" points="262.78 92.9 262.64 92.38 317.67 77.6 317.81 78.11 262.78 92.9"/>
              </g>
            </g>
            <polygon class="cls-23" points="135.92 85.72 264.67 99.69 264.22 88 136.33 75.04 135.92 85.72"/>
            <polygon class="cls-27" points="135.92 56.78 264.18 69.75 264.22 76.73 136.33 65.46 135.92 56.78"/>
          </g>
          <path class="cls-22" d="m264.18,69.75v26.95l40.61-13.21s-40.09,11.96-40.61-13.74Z"/>
        </g>
        <g>
          <path class="cls-41" d="m117.38,25.54s-5.89,12.02-.74,23.54l106.92,20.35,90.49-14.47-6.87-1.23,1.23-23.54,5.4-1.23-106.43-17.66s-86.32,9.32-90,14.22Z"/>
          <g class="cls-11">
            <path class="cls-26" d="m228.62,44.42s-8.09,11.28-1.72,22.81l81.42-13.49,1.23-23.54-80.93,14.22Z"/>
            <path class="cls-22" d="m270.1,60.03c-9.25-.17-19.26-.43-28.24-2.85-5.85-1.57-10.81-4.68-15.72-7.97-1.7,4.36-3.04,11.14.76,18.01l43.44-7.2c-.08,0-.16,0-.24,0Z"/>
            <g class="cls-7">
              <rect class="cls-25" x="219.08" y="40.97" width="98.74" height=".53" transform="translate(-3.14 43.52) rotate(-9.22)"/>
            </g>
            <g class="cls-7">
              <rect class="cls-25" x="219.08" y="46.6" width="98.74" height=".53" transform="translate(-4.04 43.6) rotate(-9.22)"/>
            </g>
            <g class="cls-7">
              <rect class="cls-25" x="219.08" y="52.24" width="98.74" height=".53" transform="translate(-4.94 43.67) rotate(-9.22)"/>
            </g>
            <g class="cls-7">
              <rect class="cls-25" x="219.08" y="56.74" width="98.74" height=".53" transform="translate(-5.66 43.73) rotate(-9.22)"/>
            </g>
          </g>
          <g>
            <path class="cls-39" d="m226.77,24.72c5.18.87,5.87,2.15,1.53,2.85-4.34.7-12.07.56-17.26-.31-5.2-.87-5.88-2.15-1.53-2.86,4.35-.7,12.08-.56,17.27.31Z"/>
            <path class="cls-39" d="m204.65,24.18c-2.23.1-4.8.06-7.21-.09-1.21-.08-2.4-.19-3.36-.35-2.53-.41-2.96-1.01-4.05-1.54-2.24-1.09-8.13-2.06-14.72-2.43,5.61-.11,11.87-.18,17.2.39,5.76.63,8.32,1.78,11.05,2.8,1.03.39,2.16.77,3.17,1.15l-2.07.06Z"/>
            <path class="cls-39" d="m231.53,28.08c2.22-.1,4.78-.07,7.18.09,1.2.08,2.39.19,3.34.35,2.51.41,2.95,1,4.03,1.53,2.22,1.08,8.07,2.05,14.61,2.41-5.57.11-11.77.19-17.07-.38-5.73-.62-8.28-1.77-11-2.79-1.03-.38-2.15-.76-3.16-1.15l2.07-.06Z"/>
            <path class="cls-39" d="m215.17,23.42c-2.32-.21-4.35-.53-5.71-.91-.68-.19-1.2-.39-1.34-.6-.36-.53,1.86-.92,3.24-1.35,2.83-.88,2.05-2.13-1.95-3.12,5.21.61,10.86,1.31,12.87,2.27,2.17,1.04-.67,2-2.78,2.9-.8.34-1.49.69-2.31,1.03l-2.02-.21Z"/>
            <path class="cls-39" d="m221.03,28.84c2.31.21,4.35.53,5.7.91.68.19,1.2.39,1.33.6.36.53-1.85.92-3.23,1.35-2.83.88-2.05,2.13,1.94,3.12-5.21-.6-10.85-1.3-12.86-2.26-2.17-1.04.67-2,2.78-2.9.8-.34,1.49-.69,2.31-1.03l2.02.21Z"/>
            <path class="cls-39" d="m225.85,24.04c-1.29-.38-1.89-.81-1.67-1.2.11-.2.43-.39,1.08-.53,1.72-.39,5.22-.41,8.12-.55,5.94-.28,10.03-1.18,10.21-2.25,2.39.95,4.82,2,2.95,2.84-2.02.91-8.26,1.24-13.63,1.61-2.03.14-4,.3-6.04.43l-1.02-.35Z"/>
            <path class="cls-39" d="m210.34,28.22c1.3.38,1.89.81,1.67,1.2-.11.2-.43.39-1.08.53-1.72.39-5.23.41-8.14.55-5.96.28-10.07,1.19-10.25,2.26-2.4-.95-4.84-2-2.97-2.85,2.03-.91,8.3-1.25,13.69-1.62,2.03-.14,4.01-.3,6.05-.44l1.02.35Z"/>
            <path class="cls-39" d="m233.99,26.02c.69-.36,2.16-.66,4.13-.83.98-.09,2.11-.15,3.32-.14,3.18.02,6.13.44,9.12.74,6.13.6,13.57.65,18.6.12-2.38.79-5.2,1.64-10.56,1.84-5.81.22-12.4-.39-18.48-.88-2.29-.18-4.62-.35-6.91-.53l.78-.31Z"/>
            <path class="cls-39" d="m202.18,26.24c-.69.36-2.17.66-4.14.83-.99.09-2.12.15-3.34.14-3.19-.01-6.17-.44-9.17-.74-6.17-.6-13.69-.65-18.77-.12,2.4-.8,5.25-1.65,10.66-1.85,5.85-.22,12.49.4,18.6.88,2.3.18,4.64.35,6.94.54l-.79.31Z"/>
          </g>
          <path class="cls-39" d="m130.21,27.86s-7.2,14.12.53,23.99l9.06,1.6s-4.8-16.79,2.13-23.99l-11.73-1.6Z"/>
          <path class="cls-39" d="m193.91,40.22s-7.2,14.12.53,23.99l9.06,1.6s-4.8-16.79,2.13-23.99l-11.73-1.6Z"/>
          <path class="cls-27" d="m117.38,25.54l111.24,18.88s-4.39,6.74-4.79,12.01l-109.45-19.86s.73-9.09,3-11.03Z"/>
          <g class="cls-7">
            <rect class="cls-34" x="172.7" y="-15.31" width="1.06" height="100.13" transform="translate(108.79 199.26) rotate(-79.95)"/>
          </g>
          <path class="cls-30" d="m223.07,65.56c-.26-.96-.48-1.92-.66-2.88l-107.63-18,1.86,4.41,106.92,20.35c-.66-1.25-.68-2.68-.5-3.88Z"/>
          <path class="cls-27" d="m131.81,21.57s41.29-7.13,75.57-10.25l63.06,10.25h-138.63Z"/>
        </g>
      </g>
    </g>
  </g>
</svg>