<?xml version="1.0" encoding="UTF-8"?>
<svg xmlns="http://www.w3.org/2000/svg" viewBox="0 0 608.31 430.14">
  <defs>
    <style>
      .cls-1 {
        fill: #8f3dc4;
      }

      .cls-2 {
        fill: #ffb8bc;
      }

      .cls-3 {
        fill: #ffd942;
      }

      .cls-4, .cls-5, .cls-6 {
        fill: #413e5e;
      }

      .cls-7 {
        stroke: #312220;
        stroke-linecap: round;
        stroke-linejoin: round;
        stroke-width: .56px;
      }

      .cls-7, .cls-8, .cls-9, .cls-10, .cls-11, .cls-12, .cls-13 {
        fill: none;
      }

      .cls-8, .cls-14 {
        opacity: .42;
      }

      .cls-15, .cls-16, .cls-17, .cls-18, .cls-19 {
        fill: #575370;
      }

      .cls-15, .cls-6 {
        opacity: .6;
      }

      .cls-20 {
        fill: #ff508a;
      }

      .cls-21 {
        fill: #ffba99;
      }

      .cls-22 {
        fill: #8ac9ff;
      }

      .cls-23 {
        fill: #e83479;
      }

      .cls-5, .cls-13, .cls-19 {
        opacity: .4;
      }

      .cls-9, .cls-18 {
        opacity: .3;
      }

      .cls-24 {
        fill: #ff808c;
      }

      .cls-25 {
        fill: #b3dcff;
      }

      .cls-17 {
        opacity: .5;
      }

      .cls-26 {
        fill: #4a245e;
      }

      .cls-10 {
        isolation: isolate;
      }

      .cls-14, .cls-27 {
        fill: #e8c6cc;
      }

      .cls-28, .cls-12 {
        opacity: .2;
      }

      .cls-28, .cls-29 {
        fill: #1c1c42;
      }

      .cls-11 {
        opacity: .8;
      }

      .cls-12 {
        mix-blend-mode: multiply;
      }

      .cls-30 {
        fill: #723891;
      }

      .cls-31 {
        fill: #2c2b4f;
      }
    </style>
  </defs>
  <g class="cls-10">
    <g id="Layer_2" data-name="Layer 2">
      <g id="OBJECTS">
        <g>
          <g class="cls-8">
            <path class="cls-27" d="m289.92,353.97c20.94,3.21,42.13,3.89,63.12,1.51,64.39-7.33,115.09-44.88,149.95-97.79,14.82-22.49,26.53-48.52,25.11-75.76-2.28-43.71-44.78-72.04-84.48-78.21-38.96-6.06-78.03,4.79-115.38,16.34-18.6,5.75-39.09,11.63-57.22,3.82-17.61-7.59-27.83-25.88-38.04-42.24C213.2,49.95,189.81,12.2,151.52,2.53c-25.68-6.48-53.96-.32-74.26,16.19-17.65,14.35-28.93,35.71-33.59,58.21-4.67,22.5-3.06,46.1,1.96,68.71,16.93,76.21,76.24,137.07,143.2,173.34,31.55,17.09,65.97,29.6,101.09,34.99Z"/>
          </g>
          <g class="cls-11">
            <path class="cls-22" d="m447.22,195.42c5.91,25.92-5.45,53.15-1.16,79.38,1.26,7.72,3.86,15.18,4.99,22.92,1.13,7.74.62,16.15-3.81,22.6-4.09,5.96-11.06,9.45-18.15,10.82-4.26.82-8.82.93-12.81-.8-5.57-2.43-9.13-8.13-10.71-14.01-2.48-9.24-.86-19-.22-28.54.64-9.54.01-19.92-6.01-27.36-3.88-4.79-9.67-6.99-13.89-11.45-4.72-4.99-8.02-11.36-9.17-18.15-.69-4.09-.63-8.38.82-12.26,1.44-3.88,4.39-7.31,8.26-8.77,6.3-2.37,9.66,2.82,15.46,2.88,4.33.04,8-3.41,9.99-7.26,2-3.85,2.82-8.19,4.5-12.19,1.97-4.67,5.25-8.93,9.73-11.29,4.49-2.36,10.25-2.56,14.5.19,4.4,2.85,6.5,8.16,7.67,13.28Z"/>
            <path class="cls-20" d="m151.58,342.22c-.63-.77-1.08-1.66-1.25-2.65-.43-2.53,1.21-5.09,3.44-6.36,1.55-.88,3.38-1.25,5.15-1.04,2.32.27,4.44,1.5,6.16,3.07,1.06.97,2.02,2.12,2.42,3.49.67,2.29-.71,4.29-2.54,5.54-3.41,2.32-7.56,1.8-11.03-.13-.88-.49-1.7-1.15-2.34-1.93Z"/>
            <path class="cls-1" d="m432.5,241.03c3.7,8.56,9.48,16.31,10.81,25.7,1.75,12.34-4.46,25.66-2.42,37.94,1.77,10.7,13.66,26.92,24.74,30.2,14.22,4.22,30.37-7.74,34.42-21.11,2.43-8,2.68-16.25,2.36-24.3-1.03-26.21-8.38-52.35-25.91-70.86-5.23-5.53-11.57-10.43-19.39-12.09-7.82-1.66-17.33.57-22.83,7-6.73,7.86-5.49,18.94-1.79,27.5Zm17.13-24.32c.83-3.3,4.17-5.3,7.46-4.47,3.3.83,5.3,4.17,4.47,7.46s-3.44,2.4-6.74,1.57c-3.3-.83-6.02-1.27-5.2-4.57Z"/>
            <path class="cls-3" d="m236.01,335.58c-4.84,8.37-14.54,13.55-24.21,13.36-9.67-.19-18.98-5.55-24.39-13.57-1.77-2.62-3.17-5.59-3.36-8.75-.19-3.15.99-6.51,3.54-8.37,3.07-2.23,7.32-1.88,10.92-.68,3.6,1.2,6.96,3.13,10.68,3.86,3.72.73,8.14-.12,10.15-3.33.68-1.08,1.02-2.34,1.58-3.49,3.96-8.15,14.87-6.83,18.65.66,2.99,5.93-.48,14.94-3.58,20.29Z"/>
            <path class="cls-20" d="m517.04,301.49c.3-.48.57-.96.82-1.47,5.5-11.16-4.04-30.31,11.36-35.93,2.43-.89,5.18-1.01,7.35-2.42,3.41-2.21,4.28-6.87,3.86-10.91s-1.81-7.99-1.67-12.05c.22-6.5,4.8-12.64,10.96-14.71,5-1.68,10.95-.99,15.06-4.3,3.65-2.94,4.58-8.21,3.95-12.86-.63-4.65-2.53-9.03-3.51-13.62-1.58-7.41-.67-15.32,2.55-22.18,2.63-5.61,7.16-10.74,13.18-12.26,3.99-1.01,8.22-.34,12.18.77.96.27,1.92.57,2.86.91,3.3,1.18,6.42,2.86,8.69,5.5,3.65,4.25,4.47,10.51,2.77,15.86-1.7,5.34-5.65,9.78-10.34,12.84-2.37,1.54-5.09,2.94-6.32,5.48-2.29,4.75,1.81,9.87,4.02,14.65,3.03,6.56,2.43,14.48-.75,20.97-3.18,6.49-8.72,11.64-15.01,15.2-5.87,3.33-13.29,6.42-14.52,13.07-.76,4.11,1.28,8.22,3.74,11.6,2.45,3.38,5.42,6.5,6.94,10.39,2.54,6.48.23,14.52-5.36,18.66-3.86,2.86-8.78,3.83-13.54,4.51-7.79,1.11-14.5,2.76-15.13,12.13-.17,2.44.3,4.98-.53,7.28-1.58,4.36-7.07,5.9-11.69,5.51-5.88-.5-11.67-3.27-15.23-7.98-3.56-4.71-4.6-11.39-2.04-16.71,1.38-2.88,3.68-5.22,5.35-7.93Z"/>
            <path class="cls-25" d="m506.67,197.48c-.7-6.08,3.16-12.4,8.89-14.55,1.17-.44,2.39-.69,3.63-.78,4.83-.35,9.87,1.85,12.65,5.85,1.09,1.57,1.86,3.39,2.06,5.3.24,2.24-.29,4.49-.82,6.68-1.14,4.74-6.01,15.54-3.14,19.72,2.09,3.03,5.74,4.64,8.06,7.5,3.03,3.75,3.18,9.54.35,13.44-3.31,4.56-10.14,6.82-10.97,12.4-.69,4.62,3.28,8.46,6.63,11.71,5.43,5.26,10.44,12.82,7.81,19.91-2.17,5.86-7.72,7.14-12.04,10.77-4.04,3.4-4.77,8.68-4.61,13.65.2,6.29.3,13.2-6.64,15.91-4.05,1.58-8.63,1-12.83-.14-5.96-1.62-11.79-4.45-15.82-9.14-5.41-6.3-7.02-19.35.25-25.27,2.41-1.96,5.53-3.41,6.69-6.29,1.14-2.82-.06-6.04-1.68-8.62-1.62-2.58-3.69-4.95-4.53-7.87-1.11-3.84.3-8.28,3.41-10.79,3.12-2.52,7.83-3.35,9.61-6.95,3.06-6.18-5.6-13.31-3.17-19.76,1.69-4.48,7.7-5.7,10.32-9.71,2.21-3.38,1.46-7.89-.03-11.64-1.49-3.75-3.65-7.33-4.11-11.34Z"/>
            <path class="cls-3" d="m571.83,357.54c-5.89,1.3-12.21,2.2-16.85,6.11-3.78,3.19-6.27,8.26-10.95,9.8-4.5,1.48-9.66-1.22-11.85-5.44-2.19-4.22-1.74-9.49.29-13.82,2.02-4.33,5.45-7.83,9.12-10.86,6.43-5.3,13.83-9.41,21.7-12.03,4.68-1.56,9.97-1.94,14.85-1.1,3.61.62,7.25,2.11,9.51,5.02,8.39,10.78-7.06,20.4-15.82,22.33Z"/>
            <g>
              <path class="cls-20" d="m516.47,191.52c-.11,1.75-1.14,3.15-2.77,3.78-.56.22-1.21-.21-1.37-.75-.18-.61.19-1.15.75-1.37.65-.25,1.14-.92,1.18-1.61.04-.6.44-1.11,1.08-1.13.56-.01,1.16.48,1.13,1.08h0Z"/>
              <path class="cls-20" d="m511.31,192.67l-.95-.24c-1.38-.35-.84-2.48.54-2.14l.95.24c1.38.35.84,2.48-.54,2.14h0Z"/>
              <path class="cls-20" d="m508.74,187.65c-.51-.83-.51-1.78-.12-2.65.25-.55,1.02-.69,1.5-.42.56.32.66.96.42,1.5.04-.11.04-.1,0,.03-.08.3-.01-.17-.01.13,0,.12.04.17.1.27.32.51.13,1.21-.38,1.51s-1.2.13-1.51-.38h0Z"/>
              <path class="cls-20" d="m512.86,185.32c.32-.54.57-1.13.64-1.77.06-.6.42-1.11,1.08-1.13.54-.01,1.19.48,1.13,1.08-.11,1.04-.39,2-.93,2.9-.73,1.22-2.65.14-1.92-1.09h0Z"/>
              <path class="cls-20" d="m510.29,180.17l.54-2.14c.35-1.38,2.48-.84,2.14.54l-.54,2.14c-.35,1.38-2.48.84-2.14-.54h0Z"/>
              <path class="cls-20" d="m505.5,182.64c-1.26-.47-2.52-.65-3.86-.54-1.42.12-1.46-2.09-.05-2.2,1.51-.12,3.02.08,4.45.61,1.32.49.79,2.63-.54,2.14h0Z"/>
              <path class="cls-20" d="m503.41,178c-.36-1.09-.39-2.26-.07-3.37.39-1.36,2.53-.83,2.14.54-.21.76-.2,1.47.05,2.21.45,1.35-1.67,1.96-2.12.62h0Z"/>
              <path class="cls-20" d="m505.18,191.21c-1,0-1.82.68-2.57,1.26-.48.37-1.23.09-1.51-.38-.34-.56-.1-1.15.38-1.51,1.07-.83,2.25-1.58,3.65-1.57,1.42,0,1.47,2.21.05,2.2h0Z"/>
              <path class="cls-20" d="m501.04,187.33c-.77-.29-1.58-.44-2.4-.3-.59.1-1.18-.13-1.37-.75-.15-.53.16-1.27.75-1.37,1.21-.2,2.4-.16,3.55.28.56.21.96.7.8,1.34-.13.53-.77,1.01-1.34.8h0Z"/>
              <path class="cls-20" d="m494.55,181.52c.16-1.05.32-2.1.48-3.16.09-.6.8-.94,1.34-.8.62.16.89.74.8,1.34-.16,1.05-.32,2.1-.48,3.16-.09.6-.8.94-1.34.8-.62-.16-.89-.74-.8-1.34h0Z"/>
              <path class="cls-20" d="m498.5,177.33c-1.38-.35-.84-2.48.54-2.14s.84,2.48-.54,2.14h0Z"/>
              <path class="cls-20" d="m493.75,174.28c-.95.43-1.9.86-2.86,1.3-.55.25-1.18.18-1.51-.38-.28-.47-.17-1.26.38-1.51.95-.43,1.9-.86,2.86-1.3.55-.25,1.18-.18,1.51.38.28.47.17,1.26-.38,1.51h0Z"/>
              <path class="cls-20" d="m492.37,183.24c-.33,1.19-.92,2.24-1.76,3.14-.97,1.04-2.55-.5-1.58-1.54.57-.62.97-1.32,1.2-2.13.38-1.37,2.52-.83,2.14.54h0Z"/>
              <path class="cls-20" d="m495.9,190.19l-.66,2.61c-.35,1.38-2.48.84-2.14-.54l.66-2.61c.35-1.38,2.48-.84,2.14.54h0Z"/>
              <path class="cls-20" d="m503.4,194.24c1.43.57,2.91,1,4.41,1.34,1.39.31.85,2.45-.54,2.14-1.7-.38-3.34-.91-4.96-1.56-1.31-.53-.22-2.44,1.09-1.92h0Z"/>
              <path class="cls-20" d="m508.66,199.93c-.63,2.15-2.84,2.56-4.8,2.42-.6-.04-1.11-.43-1.13-1.08-.01-.56.48-1.17,1.08-1.13.78.06,2.41.27,2.71-.75.4-1.36,2.54-.83,2.14.54h0Z"/>
              <path class="cls-20" d="m501.41,200.07c-.42.13-.73.46-.85.89-.37,1.37-2.51.84-2.14-.54.32-1.19,1.2-2.1,2.37-2.47,1.36-.43,1.97,1.69.62,2.12h0Z"/>
              <path class="cls-20" d="m497.29,194.2c-1.38-.35-.84-2.48.54-2.14s.84,2.48-.54,2.14h0Z"/>
              <path class="cls-20" d="m512.02,199.92c-1.38-.35-.84-2.48.54-2.14s.84,2.48-.54,2.14h0Z"/>
              <path class="cls-20" d="m496.22,200.43c-1.86.36-3.68.41-5.56.18-1.41-.17-.85-2.31.54-2.14,1.46.18,2.96.12,4.41-.16,1.39-.27,2.01,1.85.62,2.12h0Z"/>
              <path class="cls-20" d="m489.49,195.82c-1.34-.97-1.99-2.49-1.69-4.13.11-.59.78-.94,1.34-.8.61.15.91.75.8,1.34-.1.57.13,1.31.64,1.68.49.35.74.93.42,1.5-.27.48-1.02.77-1.5.42h0Z"/>
              <path class="cls-20" d="m484.52,189.5c-1.13-.81-1.81-1.97-1.91-3.36-.04-.6.5-1.11,1.08-1.13.62-.01,1.09.48,1.13,1.08.02.3.1.56.24.83.04.07.08.14.12.21.18.29-.1-.1.12.16.05.06.11.12.17.17-.01-.01.28.23.14.13.49.35.74.94.42,1.5-.27.48-1.01.77-1.5.42h0Z"/>
              <path class="cls-20" d="m488.19,180.43l-.24,1.96c-.07.6-.81.93-1.34.8-.64-.16-.87-.74-.8-1.34.08-.65.16-1.31.24-1.96.07-.6.81-.93,1.34-.8.64.16.87.74.8,1.34h0Z"/>
              <path class="cls-20" d="m480.38,182.13c-1.38-.35-.84-2.48.54-2.14s.84,2.48-.54,2.14h0Z"/>
              <path class="cls-20" d="m484.22,196.98c-1.38-.35-.84-2.48.54-2.14s.84,2.48-.54,2.14h0Z"/>
              <path class="cls-20" d="m494.07,202.88c1.81.57,2.55,2.29,2.99,4,.35,1.38-1.76,1.99-2.12.62-.21-.81-.49-2.19-1.41-2.47-1.35-.42-.82-2.56.54-2.14h0Z"/>
              <path class="cls-20" d="m499.78,205.43c-1.38-.35-.84-2.48.54-2.14s.84,2.48-.54,2.14h0Z"/>
              <path class="cls-20" d="m486,206.01c-1.38-.35-.84-2.48.54-2.14s.84,2.48-.54,2.14h0Z"/>
              <path class="cls-20" d="m484.77,199.89c-.93-1.12-2.06-1.95-3.45-2.4-1.35-.43-.82-2.58.54-2.14,1.75.56,3.28,1.54,4.45,2.96.9,1.08-.63,2.67-1.54,1.58h0Z"/>
            </g>
            <path class="cls-20" d="m145.45,326.46c-6.26,4.69-7.52,12.83-12.07,18.91-8.17,10.92-26.26,13.02-39.41,7.26-6.29-2.76-11.78-6.96-18.37-9.1-14.48-4.71-30.25,1.51-45.62,2.39-5.09.29-10.42-.06-14.88-2.29-4.46-2.22-7.84-6.68-7.21-11.23.92-6.61,9.05-10.18,16.25-11.72,7.21-1.54,15.41-2.69,19.75-8.09,1.15-1.43,1.93-3.07,2.82-4.64,4.04-7.15,10.76-13.34,19.25-15.8,8.49-2.47,18.72-.62,24.45,5.52,2.8,3,4.44,6.81,7.44,9.65,6.3,5.97,17.06,6.16,25.66,3.33,8.6-2.83,15.91-8.07,23.98-11.96s17.84-6.4,26.31-3.27c5.97,6.24,4.64,16.97-2.71,21.87-7.46,4.97-18.52,3.84-25.65,9.17Z"/>
            <g>
              <path class="cls-3" d="m454.42,266.1c1.26,1.22,1.65,2.92,1.06,4.57-.2.57-.95.78-1.46.55-.58-.26-.75-.9-.55-1.46.23-.66.05-1.47-.45-1.95-.43-.42-.56-1.06-.15-1.55.36-.43,1.12-.57,1.55-.15h0Z"/>
              <path class="cls-3" d="m451.93,270.76c-.27.19-.53.38-.8.57-1.16.82-2.43-.98-1.27-1.8.27-.19.53-.38.8-.57,1.16-.82,2.43.98,1.27,1.8h0Z"/>
              <path class="cls-3" d="m446.45,269.45c-.96-.15-1.68-.77-2.09-1.64-.25-.54.14-1.22.66-1.41.6-.22,1.16.12,1.41.66-.06-.1-.05-.09.02.02.17.26-.14-.1.09.1.09.08.15.08.27.1.59.09,1,.69.9,1.27-.1.6-.68.99-1.27.9h0Z"/>
              <path class="cls-3" d="m447.36,264.8c-.2-.6-.49-1.17-.92-1.64-.41-.44-.57-1.04-.15-1.55.34-.42,1.14-.59,1.55-.15.72.76,1.27,1.6,1.6,2.6.45,1.35-1.63,2.1-2.07.75h0Z"/>
              <path class="cls-3" d="m441.78,263.39c-.42-.6-.85-1.2-1.27-1.8-.82-1.16.98-2.43,1.8-1.27.42.6.85,1.2,1.27,1.8.82,1.16-.98,2.43-1.8,1.27h0Z"/>
              <path class="cls-3" d="m440.54,268.64c-1.18.65-2.13,1.48-2.93,2.57-.84,1.15-2.53-.25-1.7-1.4.89-1.23,2.03-2.24,3.36-2.98,1.23-.68,2.52,1.11,1.27,1.8h0Z"/>
              <path class="cls-3" d="m435.66,267.2c-1.06-.44-1.97-1.18-2.6-2.14-.78-1.18,1.01-2.46,1.8-1.27.43.66.99,1.11,1.71,1.4,1.32.54.4,2.54-.91,2.01h0Z"/>
              <path class="cls-3" d="m446.83,274.46c-.65.75-.67,1.82-.72,2.77-.03.6-.73.99-1.27.9-.64-.11-.93-.67-.9-1.27.07-1.35.26-2.74,1.19-3.79.93-1.07,2.64.33,1.7,1.4h0Z"/>
              <path class="cls-3" d="m441.18,275.07c-.72.39-1.36.91-1.79,1.62-.31.51-.87.82-1.46.55-.5-.23-.86-.94-.55-1.46.63-1.05,1.44-1.92,2.53-2.51.53-.29,1.16-.27,1.54.26.32.45.26,1.25-.26,1.54h0Z"/>
              <path class="cls-3" d="m432.55,276.21c-.69-.81-1.39-1.61-2.08-2.42-.39-.46-.19-1.21.26-1.54.53-.37,1.14-.19,1.54.26.69.81,1.39,1.61,2.08,2.42.39.46.19,1.21-.26,1.54-.53.37-1.14.19-1.54-.26h0Z"/>
              <path class="cls-3" d="m431.95,270.49c-1.16.82-2.43-.98-1.27-1.8,1.16-.82,2.43.98,1.27,1.8h0Z"/>
              <path class="cls-3" d="m426.54,272.1l-.88,3.01c-.17.58-.63,1.01-1.27.9-.54-.09-1.07-.7-.9-1.27.29-1,.59-2.01.88-3.01.17-.58.63-1.01,1.27-.9.54.09,1.07.7.9,1.27h0Z"/>
              <path class="cls-3" d="m432.43,278.99c.68,1.02,1.1,2.16,1.23,3.38.16,1.41-2.04,1.6-2.2.19-.09-.84-.37-1.6-.84-2.3-.79-1.18,1.01-2.46,1.8-1.27h0Z"/>
              <path class="cls-3" d="m440.01,280.84c.52.73,1.04,1.47,1.55,2.2.82,1.16-.98,2.43-1.8,1.27-.52-.73-1.04-1.47-1.55-2.2-.82-1.16.98-2.43,1.8-1.27h0Z"/>
              <path class="cls-3" d="m447.96,277.79c1.37-.71,2.66-1.55,3.89-2.47,1.14-.85,2.41.95,1.27,1.8-1.4,1.04-2.87,1.94-4.41,2.74-1.26.65-1.99-1.43-.75-2.07h0Z"/>
              <path class="cls-3" d="m455.71,277.51c1.22,1.88.09,3.82-1.29,5.22-.42.43-1.06.56-1.55.15-.43-.35-.58-1.12-.15-1.55.55-.56,1.78-1.65,1.19-2.55-.77-1.19,1.03-2.47,1.8-1.27h0Z"/>
              <path class="cls-3" d="m451.09,283.1c-.18.41-.13.85.12,1.22.8,1.17-1,2.45-1.8,1.27-.69-1.02-.81-2.28-.32-3.41.56-1.31,2.57-.39,2.01.91h0Z"/>
              <path class="cls-3" d="m443.96,282.39c-1.16.82-2.43-.98-1.27-1.8,1.16-.82,2.43.98,1.27,1.8h0Z"/>
              <path class="cls-3" d="m457.89,274.95c-1.16.82-2.43-.98-1.27-1.8s2.43.98,1.27,1.8h0Z"/>
              <path class="cls-3" d="m447.98,287.26c-.94,1.64-2.09,3.06-3.49,4.33-1.05.96-2.31-.86-1.27-1.8,1.09-.99,2.02-2.17,2.75-3.45.7-1.23,2.71-.32,2.01.91h0Z"/>
              <path class="cls-3" d="m440.09,289.37c-1.61.38-3.18-.11-4.24-1.41-.38-.47-.2-1.21.26-1.54.52-.36,1.16-.2,1.54.26.37.45,1.08.75,1.69.61.58-.14,1.19.05,1.41.66.19.52-.08,1.27-.66,1.41h0Z"/>
              <path class="cls-3" d="m432.06,289.02c-1.35.32-2.67.09-3.8-.74-.48-.36-.52-1.1-.15-1.55.39-.48,1.07-.51,1.55-.15.24.18.49.29.79.36.08.02.16.03.24.04.34.05-.14.01.2.01.08,0,.16,0,.24-.01-.01,0,.36-.06.19-.02.58-.14,1.19.05,1.41.66.19.52-.08,1.27-.66,1.41h0Z"/>
              <path class="cls-3" d="m427.58,280.33c.44.49.89.97,1.33,1.46.41.45.18,1.22-.26,1.54-.54.38-1.13.18-1.54-.26-.44-.49-.89-.97-1.33-1.46-.41-.45-.18-1.22.26-1.54.54-.38,1.13-.18,1.54.26h0Z"/>
              <path class="cls-3" d="m423.77,287.35c-1.16.82-2.43-.98-1.27-1.8,1.16-.82,2.43.98,1.27,1.8h0Z"/>
              <path class="cls-3" d="m437.55,294.12c-1.16.82-2.43-.98-1.27-1.8,1.16-.82,2.43.98,1.27,1.8h0Z"/>
              <path class="cls-3" d="m448.43,290.49c1.61-1.01,3.4-.44,4.98.34,1.28.63.36,2.63-.91,2.01-.75-.37-1.98-1.05-2.8-.54-1.2.75-2.48-1.05-1.27-1.8h0Z"/>
              <path class="cls-3" d="m454.09,287.83c-1.16.82-2.43-.98-1.27-1.8,1.16-.82,2.43.98,1.27,1.8h0Z"/>
              <path class="cls-3" d="m445.55,298.66c-1.16.82-2.43-.98-1.27-1.8s2.43.98,1.27,1.8h0Z"/>
              <path class="cls-3" d="m440.1,295.6c-1.45-.03-2.82.29-4.06,1.05-1.21.74-2.49-1.06-1.27-1.8,1.57-.96,3.3-1.48,5.15-1.45,1.41.03,1.61,2.22.19,2.2h0Z"/>
            </g>
            <g>
              <path class="cls-1" d="m588.25,281.34c1.26,1.22,1.65,2.92,1.06,4.57-.2.57-.95.78-1.46.55-.58-.26-.75-.9-.55-1.46.23-.66.05-1.47-.45-1.95-.43-.42-.56-1.06-.15-1.55.36-.43,1.12-.57,1.55-.15h0Z"/>
              <path class="cls-1" d="m585.76,286c-.27.19-.53.38-.8.57-1.16.82-2.43-.98-1.27-1.8.27-.19.53-.38.8-.57,1.16-.82,2.43.98,1.27,1.8h0Z"/>
              <path class="cls-1" d="m580.28,284.69c-.96-.15-1.68-.77-2.09-1.64-.25-.54.14-1.22.66-1.41.6-.22,1.16.12,1.41.66-.06-.1-.05-.09.02.02.17.26-.14-.1.09.1.09.08.15.08.27.1.59.09,1,.69.9,1.27-.1.6-.68.99-1.27.9h0Z"/>
              <path class="cls-1" d="m581.19,280.04c-.2-.6-.49-1.17-.92-1.64-.41-.44-.57-1.04-.15-1.55.34-.42,1.14-.59,1.55-.15.72.76,1.27,1.6,1.6,2.6.45,1.35-1.63,2.1-2.07.75h0Z"/>
              <path class="cls-1" d="m575.61,278.63c-.42-.6-.85-1.2-1.27-1.8-.82-1.16.98-2.43,1.8-1.27l1.27,1.8c.82,1.16-.98,2.43-1.8,1.27h0Z"/>
              <path class="cls-1" d="m574.36,283.88c-1.18.65-2.13,1.48-2.92,2.57-.84,1.15-2.53-.25-1.7-1.4.89-1.23,2.03-2.24,3.36-2.98,1.23-.68,2.52,1.11,1.27,1.8h0Z"/>
              <path class="cls-1" d="m569.49,282.44c-1.06-.44-1.97-1.18-2.6-2.14-.78-1.18,1.01-2.46,1.8-1.27.43.66.99,1.11,1.71,1.4,1.32.54.4,2.54-.91,2.01h0Z"/>
              <path class="cls-1" d="m580.66,289.7c-.65.75-.67,1.82-.72,2.77-.03.6-.73.99-1.27.9-.64-.11-.93-.67-.9-1.27.07-1.35.26-2.74,1.19-3.79.93-1.07,2.64.33,1.7,1.4h0Z"/>
              <path class="cls-1" d="m575.01,290.31c-.72.39-1.36.91-1.79,1.62-.31.51-.87.82-1.46.55-.5-.23-.86-.94-.55-1.46.63-1.05,1.44-1.92,2.53-2.51.53-.29,1.16-.27,1.54.26.32.45.26,1.25-.26,1.54h0Z"/>
              <path class="cls-1" d="m566.38,291.45c-.69-.81-1.39-1.61-2.08-2.42-.39-.46-.19-1.21.26-1.54.53-.37,1.14-.19,1.54.26.69.81,1.39,1.61,2.08,2.42.39.46.19,1.21-.26,1.54-.53.37-1.14.19-1.54-.26h0Z"/>
              <path class="cls-1" d="m565.78,285.73c-1.16.82-2.43-.98-1.27-1.8,1.16-.82,2.43.98,1.27,1.8h0Z"/>
              <path class="cls-1" d="m560.37,287.34c-.29,1-.59,2.01-.88,3.01-.17.58-.63,1.01-1.27.9-.54-.09-1.07-.7-.9-1.27.29-1,.59-2.01.88-3.01.17-.58.63-1.01,1.27-.9.54.09,1.07.7.9,1.27h0Z"/>
              <path class="cls-1" d="m566.26,294.23c.68,1.02,1.1,2.16,1.23,3.38.16,1.41-2.04,1.6-2.2.19-.09-.84-.37-1.6-.84-2.3-.79-1.18,1.01-2.46,1.8-1.27h0Z"/>
              <path class="cls-1" d="m573.84,296.08c.52.73,1.04,1.47,1.55,2.2.82,1.16-.98,2.43-1.8,1.27-.52-.73-1.04-1.47-1.55-2.2-.82-1.16.98-2.43,1.8-1.27h0Z"/>
              <path class="cls-1" d="m581.79,293.03c1.37-.71,2.66-1.55,3.89-2.47,1.14-.85,2.41.95,1.27,1.8-1.4,1.04-2.87,1.94-4.41,2.74-1.26.65-1.99-1.43-.75-2.07h0Z"/>
              <path class="cls-1" d="m589.54,292.75c1.22,1.88.09,3.82-1.29,5.22-.42.43-1.06.56-1.55.15-.43-.35-.58-1.12-.15-1.55.55-.56,1.78-1.65,1.19-2.55-.77-1.19,1.03-2.47,1.8-1.27h0Z"/>
              <path class="cls-1" d="m584.91,298.34c-.18.41-.13.86.12,1.22.8,1.17-1,2.45-1.8,1.27-.69-1.02-.81-2.28-.32-3.41.56-1.31,2.57-.39,2.01.91h0Z"/>
              <path class="cls-1" d="m577.78,297.63c-1.16.82-2.43-.98-1.27-1.8s2.43.98,1.27,1.8h0Z"/>
              <path class="cls-1" d="m591.72,290.19c-1.16.82-2.43-.98-1.27-1.8,1.16-.82,2.43.98,1.27,1.8h0Z"/>
              <path class="cls-1" d="m581.81,302.5c-.94,1.64-2.09,3.06-3.49,4.33-1.05.96-2.31-.86-1.27-1.8,1.09-.99,2.02-2.17,2.75-3.45.7-1.23,2.71-.32,2.01.91h0Z"/>
              <path class="cls-1" d="m573.92,304.61c-1.61.38-3.18-.11-4.24-1.41-.38-.47-.2-1.21.26-1.54.52-.36,1.16-.2,1.54.26.37.45,1.08.75,1.69.61.58-.14,1.19.05,1.41.66.19.52-.08,1.27-.66,1.41h0Z"/>
              <path class="cls-1" d="m565.89,304.26c-1.35.32-2.67.09-3.8-.74-.48-.36-.52-1.1-.15-1.55.39-.48,1.07-.51,1.55-.15.24.18.49.29.79.36.08.02.16.03.24.04.34.05-.14.01.2.01.08,0,.16,0,.24-.01-.01,0,.36-.06.19-.02.58-.14,1.19.05,1.41.66.19.52-.08,1.27-.66,1.41h0Z"/>
              <path class="cls-1" d="m561.41,295.57c.44.49.89.97,1.33,1.46.41.45.18,1.22-.26,1.54-.54.38-1.13.18-1.54-.26-.44-.49-.89-.97-1.33-1.46-.41-.45-.18-1.22.26-1.54.54-.38,1.13-.18,1.54.26h0Z"/>
              <path class="cls-1" d="m557.6,302.59c-1.16.82-2.43-.98-1.27-1.8s2.43.98,1.27,1.8h0Z"/>
              <path class="cls-1" d="m571.37,309.36c-1.16.82-2.43-.98-1.27-1.8,1.16-.82,2.43.98,1.27,1.8h0Z"/>
              <path class="cls-1" d="m582.26,305.73c1.61-1.01,3.4-.44,4.98.34,1.28.63.36,2.63-.91,2.01-.75-.37-1.98-1.05-2.8-.54-1.2.75-2.48-1.05-1.27-1.8h0Z"/>
              <path class="cls-1" d="m587.92,303.07c-1.16.82-2.43-.98-1.27-1.8,1.16-.82,2.43.98,1.27,1.8h0Z"/>
              <path class="cls-1" d="m579.38,313.9c-1.16.82-2.43-.98-1.27-1.8,1.16-.82,2.43.98,1.27,1.8h0Z"/>
              <path class="cls-1" d="m573.93,310.84c-1.45-.03-2.82.29-4.06,1.05-1.21.74-2.49-1.06-1.27-1.8,1.57-.96,3.3-1.48,5.15-1.45,1.41.03,1.61,2.22.19,2.2h0Z"/>
            </g>
            <path class="cls-30" d="m78.57,298.28c.23-.59.42-1.19.58-1.8,3.46-13.45-14.94-31.42,3-41.59,2.84-1.61,6.32-2.48,8.65-4.58,3.66-3.29,3.28-8.52,1.44-12.74s-4.9-8.08-6.03-12.48c-1.81-7.03,2.08-14.84,9.32-18.73,5.87-3.15,13.73-4.01,17.93-8.66,3.74-4.14,3.23-10.04.92-14.86-2.31-4.82-6.15-9-8.88-13.66-4.41-7.52-5.79-16.25-3.87-24.47,1.57-6.73,5.73-13.45,12.95-16.7,4.79-2.15,10.43-2.57,15.87-2.46,1.32.03,2.64.1,3.96.21,4.61.38,9.16,1.34,12.91,3.56,6.06,3.57,9.12,10.07,8.66,16.26-.46,6.19-4.1,12.01-9.13,16.55-2.54,2.29-5.58,4.52-6.34,7.58-1.41,5.71,5.5,10.1,9.87,14.63,6,6.22,7.78,14.87,5.79,22.69-1.99,7.82-7.44,14.83-14.36,20.35-6.46,5.16-14.98,10.47-14.42,17.92.35,4.61,4.29,8.47,8.53,11.44,4.24,2.97,9.04,5.51,12.25,9.27,5.34,6.26,4.97,15.51-.86,21.46-4.03,4.11-10.03,6.48-15.92,8.49-9.63,3.29-17.7,6.87-15.5,17.08.57,2.66,1.98,5.26,1.66,7.95-.62,5.1-7.17,8.23-13.22,9.06-7.7,1.05-16.02-.36-22.1-4.46-6.08-4.09-9.56-10.98-7.99-17.38.85-3.46,3.04-6.59,4.32-9.94Z"/>
            <path class="cls-22" d="m23.13,195.88c-3.81-5.81-2.15-13.98,3.81-18.83,1.22-.99,2.59-1.81,4.06-2.48,5.74-2.61,12.99-2.74,18.34,0,2.1,1.08,3.92,2.56,5.1,4.38,1.39,2.15,1.83,4.66,2.25,7.12.91,5.31.19,18.49,5.74,21.37,4.03,2.09,9.28,2,13.51,3.81,5.53,2.36,8.53,8.14,6.96,13.4-1.84,6.14-9.1,11.62-7.41,17.62,1.4,4.99,8.12,7,13.81,8.72,9.2,2.78,19.01,8.07,19.24,16.44.18,6.93-5.99,10.81-9.51,16.49-3.3,5.32-1.62,10.98.99,15.93,3.3,6.25,6.78,13.18-.4,19.14-4.2,3.49-10.08,5.04-15.78,5.84-8.09,1.15-16.6,1.01-23.81-1.84-9.69-3.83-18-16.24-11.97-25.61,1.99-3.1,5.12-6.02,5.14-9.47.02-3.38-3.01-6.07-6.24-7.91-3.23-1.84-6.93-3.27-9.38-5.83-3.22-3.36-3.66-8.5-1.07-12.48,2.6-4,7.96-7.03,8.4-11.49.75-7.66-13.32-10.81-13.49-18.46-.11-5.31,6.67-9.34,7.93-14.61,1.06-4.44-2.05-8.64-5.69-11.73-3.64-3.09-8.03-5.69-10.54-9.53Z"/>
            <g>
              <path class="cls-1" d="m58.2,318.19c-.11,1.75-1.14,3.15-2.77,3.78-.56.22-1.21-.21-1.37-.75-.18-.61.19-1.15.75-1.37.65-.25,1.14-.92,1.18-1.61.04-.6.44-1.11,1.08-1.13.56-.01,1.16.48,1.13,1.08h0Z"/>
              <path class="cls-1" d="m53.04,319.34l-.95-.24c-1.38-.35-.84-2.48.54-2.14l.95.24c1.38.35.84,2.48-.54,2.14h0Z"/>
              <path class="cls-1" d="m50.46,314.32c-.51-.83-.51-1.78-.12-2.65.25-.55,1.02-.69,1.5-.42.56.32.66.96.42,1.5.04-.11.04-.1,0,.03-.08.3-.01-.17-.01.13,0,.12.04.17.1.27.32.51.13,1.21-.38,1.51s-1.2.13-1.51-.38h0Z"/>
              <path class="cls-1" d="m54.58,311.99c.32-.54.57-1.13.64-1.77.06-.6.42-1.11,1.08-1.13.54-.01,1.19.48,1.13,1.08-.11,1.04-.39,2-.93,2.9-.73,1.22-2.65.14-1.92-1.09h0Z"/>
              <path class="cls-1" d="m52.01,306.83l.54-2.14c.35-1.38,2.48-.84,2.14.54l-.54,2.14c-.35,1.38-2.48.84-2.14-.54h0Z"/>
              <path class="cls-1" d="m47.22,309.31c-1.26-.47-2.52-.65-3.86-.54-1.42.12-1.46-2.09-.05-2.2,1.51-.12,3.02.08,4.45.61,1.32.49.79,2.63-.54,2.14h0Z"/>
              <path class="cls-1" d="m45.14,304.67c-.36-1.09-.39-2.26-.07-3.37.39-1.36,2.53-.83,2.14.54-.21.76-.2,1.47.05,2.21.45,1.35-1.67,1.96-2.12.62h0Z"/>
              <path class="cls-1" d="m46.91,317.88c-1,0-1.82.68-2.57,1.26-.48.37-1.23.09-1.51-.38-.34-.56-.1-1.15.38-1.51,1.07-.83,2.25-1.58,3.65-1.57,1.42,0,1.47,2.21.05,2.2h0Z"/>
              <path class="cls-1" d="m42.77,313.99c-.77-.29-1.58-.44-2.4-.3-.59.1-1.18-.13-1.37-.75-.15-.53.16-1.27.75-1.37,1.21-.2,2.4-.16,3.55.28.56.21.96.7.8,1.34-.13.53-.77,1.01-1.34.8h0Z"/>
              <path class="cls-1" d="m36.28,308.19c.16-1.05.32-2.1.48-3.16.09-.6.8-.94,1.34-.8.62.16.89.74.8,1.34-.16,1.05-.32,2.1-.48,3.16-.09.6-.8.94-1.34.8-.62-.16-.89-.74-.8-1.34h0Z"/>
              <path class="cls-1" d="m40.23,304c-1.38-.35-.84-2.48.54-2.14,1.38.35.84,2.48-.54,2.14h0Z"/>
              <path class="cls-1" d="m35.47,300.95c-.95.43-1.9.86-2.86,1.3-.55.25-1.18.18-1.51-.38-.28-.47-.17-1.26.38-1.51.95-.43,1.9-.86,2.86-1.3.55-.25,1.18-.18,1.51.38.28.47.17,1.26-.38,1.51h0Z"/>
              <path class="cls-1" d="m34.09,309.91c-.33,1.19-.92,2.24-1.76,3.14-.97,1.04-2.55-.5-1.58-1.54.57-.62.97-1.32,1.2-2.13.38-1.37,2.52-.83,2.14.54h0Z"/>
              <path class="cls-1" d="m37.63,316.86c-.22.87-.44,1.74-.66,2.61-.35,1.38-2.48.84-2.14-.54.22-.87.44-1.74.66-2.61.35-1.38,2.48-.84,2.14.54h0Z"/>
              <path class="cls-1" d="m45.12,320.91c1.43.57,2.91,1,4.41,1.34,1.39.31.85,2.45-.54,2.14-1.7-.38-3.34-.91-4.96-1.56-1.31-.53-.22-2.44,1.09-1.92h0Z"/>
              <path class="cls-1" d="m50.39,326.6c-.63,2.15-2.84,2.56-4.8,2.42-.6-.04-1.11-.43-1.13-1.08-.01-.56.48-1.17,1.08-1.13.78.06,2.41.27,2.71-.75.4-1.36,2.54-.83,2.14.54h0Z"/>
              <path class="cls-1" d="m43.14,326.74c-.42.13-.73.46-.85.89-.37,1.37-2.51.84-2.14-.54.32-1.19,1.2-2.1,2.37-2.47,1.36-.43,1.97,1.69.62,2.12h0Z"/>
              <path class="cls-1" d="m39.02,320.87c-1.38-.35-.84-2.48.54-2.14s.84,2.48-.54,2.14h0Z"/>
              <path class="cls-1" d="m53.75,326.59c-1.38-.35-.84-2.48.54-2.14s.84,2.48-.54,2.14h0Z"/>
              <path class="cls-1" d="m37.95,327.09c-1.86.36-3.68.41-5.56.18-1.41-.17-.85-2.31.54-2.14,1.46.18,2.96.12,4.41-.16,1.39-.27,2.01,1.85.62,2.12h0Z"/>
              <path class="cls-1" d="m31.21,322.49c-1.34-.97-1.99-2.49-1.69-4.13.11-.59.78-.94,1.34-.8.61.15.91.75.8,1.34-.1.57.13,1.31.64,1.68.49.35.74.93.42,1.5-.27.48-1.02.77-1.5.42h0Z"/>
              <path class="cls-1" d="m26.24,316.17c-1.13-.81-1.81-1.97-1.91-3.36-.04-.6.5-1.11,1.08-1.13.62-.01,1.09.48,1.13,1.08.02.3.1.56.24.83.04.07.08.14.12.21.18.29-.1-.1.12.16.05.06.11.12.17.17-.01-.01.28.23.14.13.49.35.74.94.42,1.5-.27.48-1.01.77-1.5.42h0Z"/>
              <path class="cls-1" d="m29.92,307.1l-.24,1.96c-.07.6-.81.93-1.34.8-.64-.16-.87-.74-.8-1.34.08-.65.16-1.31.24-1.96.07-.6.81-.93,1.34-.8.64.16.87.74.8,1.34h0Z"/>
              <path class="cls-1" d="m22.1,308.8c-1.38-.35-.84-2.48.54-2.14s.84,2.48-.54,2.14h0Z"/>
              <path class="cls-1" d="m25.95,323.65c-1.38-.35-.84-2.48.54-2.14s.84,2.48-.54,2.14h0Z"/>
              <path class="cls-1" d="m35.8,329.54c1.81.57,2.55,2.29,2.99,4,.35,1.38-1.76,1.99-2.12.62-.21-.81-.49-2.19-1.41-2.47-1.35-.42-.82-2.56.54-2.14h0Z"/>
              <path class="cls-1" d="m41.5,332.1c-1.38-.35-.84-2.48.54-2.14s.84,2.48-.54,2.14h0Z"/>
              <path class="cls-1" d="m27.72,332.68c-1.38-.35-.84-2.48.54-2.14s.84,2.48-.54,2.14h0Z"/>
              <path class="cls-1" d="m26.49,326.56c-.93-1.12-2.06-1.95-3.45-2.4-1.35-.43-.82-2.58.54-2.14,1.75.56,3.28,1.54,4.45,2.96.9,1.08-.63,2.67-1.54,1.58h0Z"/>
            </g>
            <g>
              <path class="cls-3" d="m124.67,157.21c-.11,1.75-1.14,3.15-2.77,3.78-.56.22-1.21-.21-1.37-.75-.18-.61.19-1.15.75-1.37.65-.25,1.14-.92,1.18-1.61.04-.6.44-1.11,1.08-1.13.56-.01,1.16.48,1.13,1.08h0Z"/>
              <path class="cls-3" d="m119.51,158.37l-.95-.24c-1.38-.35-.84-2.48.54-2.14l.95.24c1.38.35.84,2.48-.54,2.14h0Z"/>
              <path class="cls-3" d="m116.94,153.35c-.51-.83-.51-1.78-.12-2.65.25-.55,1.02-.69,1.5-.42.56.32.66.96.42,1.5.04-.11.04-.1,0,.03-.08.3-.01-.17-.01.13,0,.12.04.17.1.27.32.51.13,1.21-.38,1.51s-1.2.13-1.51-.38h0Z"/>
              <path class="cls-3" d="m121.06,151.01c.32-.54.57-1.13.64-1.77.06-.6.42-1.11,1.08-1.13.54-.01,1.19.48,1.13,1.08-.11,1.04-.39,2-.93,2.9-.73,1.22-2.65.14-1.92-1.09h0Z"/>
              <path class="cls-3" d="m118.49,145.86l.54-2.14c.35-1.38,2.48-.84,2.14.54l-.54,2.14c-.35,1.38-2.48.84-2.14-.54h0Z"/>
              <path class="cls-3" d="m113.7,148.34c-1.26-.47-2.52-.65-3.86-.54-1.42.12-1.46-2.09-.05-2.2,1.51-.12,3.02.08,4.45.61,1.32.49.79,2.63-.54,2.14h0Z"/>
              <path class="cls-3" d="m111.61,143.7c-.36-1.09-.39-2.26-.07-3.37.39-1.36,2.53-.83,2.14.54-.21.76-.2,1.47.05,2.21.45,1.35-1.67,1.96-2.12.62h0Z"/>
              <path class="cls-3" d="m113.38,156.91c-1,0-1.82.68-2.57,1.26-.48.37-1.23.09-1.51-.38-.34-.56-.1-1.15.38-1.51,1.07-.83,2.25-1.58,3.65-1.57,1.42,0,1.47,2.21.05,2.2h0Z"/>
              <path class="cls-3" d="m109.24,153.02c-.77-.29-1.58-.44-2.4-.3-.59.1-1.18-.13-1.37-.75-.15-.53.16-1.27.75-1.37,1.21-.2,2.4-.16,3.55.28.56.21.96.7.8,1.34-.13.53-.77,1.01-1.34.8h0Z"/>
              <path class="cls-3" d="m102.75,147.21c.16-1.05.32-2.1.48-3.16.09-.6.8-.94,1.34-.8.62.16.89.74.8,1.34-.16,1.05-.32,2.1-.48,3.16-.09.6-.8.94-1.34.8-.62-.16-.89-.74-.8-1.34h0Z"/>
              <path class="cls-3" d="m106.7,143.03c-1.38-.35-.84-2.48.54-2.14s.84,2.48-.54,2.14h0Z"/>
              <path class="cls-3" d="m101.95,139.98c-.95.43-1.9.86-2.86,1.3-.55.25-1.18.18-1.51-.38-.28-.47-.17-1.26.38-1.51.95-.43,1.9-.86,2.86-1.3.55-.25,1.18-.18,1.51.38.28.47.17,1.26-.38,1.51h0Z"/>
              <path class="cls-3" d="m100.57,148.94c-.33,1.19-.92,2.24-1.76,3.14-.97,1.04-2.55-.5-1.58-1.54.57-.62.97-1.32,1.2-2.13.38-1.37,2.52-.83,2.14.54h0Z"/>
              <path class="cls-3" d="m104.1,155.89l-.66,2.61c-.35,1.38-2.48.84-2.14-.54l.66-2.61c.35-1.38,2.48-.84,2.14.54h0Z"/>
              <path class="cls-3" d="m111.6,159.93c1.43.57,2.91,1,4.41,1.34,1.39.31.85,2.45-.54,2.14-1.7-.38-3.34-.91-4.96-1.56-1.31-.53-.22-2.44,1.09-1.92h0Z"/>
              <path class="cls-3" d="m116.86,165.63c-.63,2.15-2.84,2.56-4.8,2.42-.6-.04-1.11-.43-1.13-1.08-.01-.56.48-1.17,1.08-1.13.78.06,2.41.27,2.71-.75.4-1.36,2.54-.83,2.14.54h0Z"/>
              <path class="cls-3" d="m109.61,165.76c-.42.13-.73.46-.85.89-.37,1.37-2.51.84-2.14-.54.32-1.19,1.2-2.1,2.37-2.47,1.36-.43,1.97,1.69.62,2.12h0Z"/>
              <path class="cls-3" d="m105.5,159.9c-1.38-.35-.84-2.48.54-2.14s.84,2.48-.54,2.14h0Z"/>
              <path class="cls-3" d="m120.22,165.61c-1.38-.35-.84-2.48.54-2.14s.84,2.48-.54,2.14h0Z"/>
              <path class="cls-3" d="m104.42,166.12c-1.86.36-3.68.41-5.56.18-1.41-.17-.85-2.31.54-2.14,1.46.18,2.96.12,4.41-.16,1.39-.27,2.01,1.85.62,2.12h0Z"/>
              <path class="cls-3" d="m97.69,161.51c-1.34-.97-1.99-2.49-1.69-4.13.11-.59.78-.94,1.34-.8.61.15.91.75.8,1.34-.1.57.13,1.31.64,1.68.49.35.74.93.42,1.5-.27.48-1.02.77-1.5.42h0Z"/>
              <path class="cls-3" d="m92.72,155.19c-1.13-.81-1.81-1.97-1.91-3.36-.04-.6.5-1.11,1.08-1.13.62-.01,1.09.48,1.13,1.08.02.3.1.56.24.83.04.07.08.14.12.21.18.29-.1-.1.12.16.05.06.11.12.17.17-.01-.01.28.23.14.13.49.35.74.94.42,1.5-.27.48-1.01.77-1.5.42h0Z"/>
              <path class="cls-3" d="m96.39,146.13l-.24,1.96c-.07.6-.81.93-1.34.8-.64-.16-.87-.74-.8-1.34.08-.65.16-1.31.24-1.96.07-.6.81-.93,1.34-.8.64.16.87.74.8,1.34h0Z"/>
              <path class="cls-3" d="m88.58,147.82c-1.38-.35-.84-2.48.54-2.14s.84,2.48-.54,2.14h0Z"/>
              <path class="cls-3" d="m92.42,162.68c-1.38-.35-.84-2.48.54-2.14s.84,2.48-.54,2.14h0Z"/>
              <path class="cls-3" d="m102.27,168.57c1.81.57,2.55,2.29,2.99,4,.35,1.38-1.76,1.99-2.12.62-.21-.81-.49-2.19-1.41-2.47-1.35-.42-.82-2.56.54-2.14h0Z"/>
              <path class="cls-3" d="m107.98,171.12c-1.38-.35-.84-2.48.54-2.14s.84,2.48-.54,2.14h0Z"/>
              <path class="cls-3" d="m94.2,171.71c-1.38-.35-.84-2.48.54-2.14s.84,2.48-.54,2.14h0Z"/>
              <path class="cls-3" d="m92.97,165.58c-.93-1.12-2.06-1.95-3.45-2.4-1.35-.43-.82-2.58.54-2.14,1.75.56,3.28,1.54,4.45,2.96.9,1.08-.63,2.67-1.54,1.58h0Z"/>
            </g>
          </g>
          <ellipse class="cls-14" cx="237.37" cy="390.28" rx="139.97" ry="22.01"/>
          <ellipse class="cls-14" cx="452.08" cy="363.7" rx="61.93" ry="15.31"/>
          <ellipse class="cls-14" cx="345.23" cy="66.56" rx="39.74" ry="33.81" transform="translate(.33 134.78) rotate(-22.1)"/>
          <g class="cls-13">
            <path class="cls-29" d="m179.13,242.34c-6.67-20.44-34.56-19.8-50.96-26.99-10.36-4.55-20.5-11.78-25.76-22.07-6.44-12.58-2.34-26.52,6.56-36.77,8.36-9.63,20.43-15.91,33.06-17.49s24.84,1.85,35.47,8.38c23.33,14.35,35.75,39.52,48.87,62.5,6.65,11.65,13.73,23.52,23.3,33.06,9.36,9.33,20.85,14.49,33.87,16.3,28.83,4,58.07-3.63,85.44-11.99s56.5-18.78,86.23-20.92c14.58-1.05,29.39-.07,43.44,4.14,6.61,1.98,13.29,4.63,18.48,9.3s7.85,10.59,8.52,17.19c1.32,13.03-5.38,25.05-15.7,32.64-5.12,3.77-10.95,6.52-17,8.42-5.36,1.68-10.93,2.52-16.39,3.81-9.1,2.16-19.45,6.19-21.4,16.53-2.15,11.4,6.57,22.24,14.8,28.95,8.72,7.11,19.4,11.7,30.52,13.31,5.56.8,11.22.87,16.79.12,5.05-.68,10.86-1.72,15.04-4.85,8.07-6.05,2.01-15.37-5.78-17.68-10.7-3.17-18.53,6.89-23.7,14.75-6.22,9.46-12.8,18.2-21.36,25.7-8.26,7.24-17.63,13.18-27.61,17.76-20.34,9.34-43.3,13.05-65.54,10.56-11.62-1.3-22.94-4.38-33.65-9.08-13.03-5.72-25.1-13.31-37.55-20.14-22.83-12.5-49.54-22.6-75.13-12.15-20.1,8.21-34.9,25.16-51.05,39-9.4,8.06-19.55,15.4-31.25,19.76-12.48,4.65-27.42,6.95-40.47,3.35-5.89-1.62-11.83-4.86-14.96-10.32-3.61-6.28-2.13-15.43-.48-22.1.87-3.51,2.01-7.24,3.9-10.34s7.57-7.86,11.16-4.1-2.19,9.48-4.96,11.48c-3.02,2.19-6.16,4.42-9.74,5.56-6.13,1.97-12.85,1.58-19.16.82-7.64-.92-15.11-2.86-22.44-5.18-11.2-3.55-22.47-7.21-34.31-7.73-10.25-.45-20.42,1.84-28.11,8.95-.36.33.18.86.53.53,9.42-8.71,22.42-9.79,34.6-8.07,13.17,1.87,25.38,7.11,38.25,10.17,11.21,2.67,25.74,5.3,36.1-1.27,4.43-2.8,10.31-6.11,10.89-11.95.5-4.99-4.81-6.19-8.58-4.36-5.2,2.53-7.23,9.18-8.61,14.34-1.61,6.03-2.75,13.26-1.32,19.43,2.54,10.86,14.9,15.29,24.76,16.24,13.38,1.28,27.39-1.66,39.47-7.41,10.18-4.85,19.12-11.87,27.56-19.27,16.83-14.76,32.99-32.99,55.32-39.17,29.37-8.13,57.43,8.59,82.01,22.55,11.57,6.57,23.36,12.96,36.13,16.87,10.41,3.19,21.29,4.85,32.17,5.06,21.75.43,43.66-4.85,62.72-15.37,9.44-5.21,18.18-11.73,25.73-19.43,3.8-3.87,7.3-8.05,10.43-12.48,3.49-4.93,6.4-10.31,10.36-14.91,4.18-4.85,9.99-9.1,16.71-7.59,5.04,1.13,11.33,5.7,9.98,11.62-1.55,6.8-10.78,8.53-16.58,9.47-6.23,1.01-12.62.97-18.85,0-12.27-1.91-24.03-7.53-32.97-16.17-8.92-8.63-17.21-24.58-5.4-34.55,8.89-7.5,22.23-7.18,32.82-10.71s21.48-10.33,27.42-20.48c5.44-9.31,6.68-21.63,1.6-31.36-5.79-11.08-18.78-15.59-30.19-18.29-28.48-6.76-58.23-1.28-85.91,6.5-29.31,8.25-57.95,19.64-88.34,23.48-14.53,1.84-30.04,2.32-44.3-1.51s-24.92-13.35-33.55-25.04c-16.39-22.2-25.97-48.97-44.79-69.45-16.11-17.52-39.06-29.33-63.07-22.1-20.73,6.25-42.26,28.67-32.36,51.6,4.3,9.96,13.3,17.33,22.72,22.24s20.52,6.81,30.94,10.03,20.43,7.91,23.89,18.53c.15.46.87.26.72-.2h0Z"/>
          </g>
          <g>
            <g>
              <path class="cls-29" d="m371.07,272.49l-4.12,88.29c-.92,14.83-11.02,27.51-25.27,31.72h0c-17.93,5.29-36.88-4.3-43.24-21.88l-24.63-68.09,97.26-30.03Z"/>
              <g class="cls-12">
                <polygon class="cls-29" points="370.17 291.85 371.07 272.49 365.3 274.27 370.17 291.85"/>
                <path class="cls-29" d="m312.48,363.59l-31.72-41.86,17.68,48.89c6.36,17.58,25.31,27.17,43.24,21.88,10.31-3.04,18.42-10.52,22.48-20.04-16.61,11.57-39.04,7.82-51.68-8.86Z"/>
              </g>
              <rect class="cls-29" x="166.28" y="208.51" width="145.52" height="107.38" transform="translate(71.2 -50.4) rotate(14.12)"/>
              <rect class="cls-6" x="166.99" y="212.51" width="145.52" height="93.74" transform="translate(70.53 -50.66) rotate(14.12)"/>
              <circle class="cls-31" cx="319.69" cy="278.62" r="51.74"/>
              <rect class="cls-29" x="316.08" y="208.81" width="37.18" height="13.13" rx="5.36" ry="5.36" transform="translate(62.66 -75.15) rotate(14.12)"/>
              <circle class="cls-29" cx="259.96" cy="312.79" r="30.69"/>
              <circle class="cls-31" cx="261.9" cy="305.06" r="30.69"/>
              <path class="cls-31" d="m300.85,234.94l7.47-15.45c2.82-5.84,8.67-9.61,15.16-9.77h0c8.87-.22,17.58,2.36,24.9,7.38l2.02,1.38c4.83,3.31,7.65,8.84,7.51,14.69l-.39,16.03-56.66-14.26Z"/>
              <path class="cls-4" d="m322.38,214.99c8.36-.21,16.57,2.22,23.46,6.95l1.9,1.3c2.01,1.38,3.66,3.17,4.85,5.22-.87-3.46-2.96-6.55-5.98-8.62l-1.73-1.19c-6.27-4.3-13.73-6.51-21.33-6.32-5.37.13-10.22,3.16-12.72,7.88,2.95-3.18,7.09-5.11,11.55-5.23Z"/>
              <circle class="cls-31" cx="318.08" cy="275.93" r="46.87"/>
              <circle class="cls-15" cx="318.08" cy="275.93" r="46.87"/>
              <ellipse class="cls-15" cx="318.89" cy="278.15" rx="44.92" ry="45.54" transform="translate(-28.66 519.55) rotate(-75.88)"/>
              <path class="cls-28" d="m356,254.54c1.37,6.41,1.34,13.21-.37,20-5.95,23.67-29.97,38.03-53.64,32.07-13.24-3.33-23.56-12.31-29.05-23.72,3.41,15.95,15.55,29.39,32.44,33.64,23.67,5.95,47.68-8.41,53.64-32.07,2.62-10.43,1.3-20.93-3.03-29.92Z"/>
              <circle class="cls-29" cx="261.9" cy="305.06" r="23.91"/>
              <circle class="cls-4" cx="260.08" cy="302.01" r="18.9"/>
              <g>
                <g>
                  <circle class="cls-31" cx="323.25" cy="256.19" r="10.03"/>
                  <circle class="cls-4" cx="321.54" cy="253.33" r="10.03"/>
                  <path class="cls-16" d="m315.36,254.25c1.06-4.2,5.32-6.75,9.52-5.69,2.24.56,4,2.04,5.01,3.93-.18-3.35-2.5-6.33-5.92-7.19-4.2-1.06-8.46,1.49-9.52,5.69-.49,1.96-.19,3.93.69,5.59-.04-.77.03-1.55.23-2.33Z"/>
                </g>
                <g>
                  <circle class="cls-31" cx="341.99" cy="282.29" r="10.03"/>
                  <circle class="cls-4" cx="340.28" cy="279.43" r="10.03"/>
                  <path class="cls-16" d="m334.1,280.35c1.06-4.2,5.32-6.75,9.52-5.69,2.24.56,4,2.04,5.01,3.93-.18-3.35-2.5-6.33-5.92-7.19-4.2-1.06-8.46,1.49-9.52,5.69-.49,1.96-.19,3.93.69,5.59-.04-.77.03-1.55.23-2.33Z"/>
                </g>
                <g>
                  <circle class="cls-31" cx="296.3" cy="270.8" r="10.03"/>
                  <circle class="cls-4" cx="294.59" cy="267.93" r="10.03"/>
                  <path class="cls-16" d="m288.41,268.85c1.06-4.2,5.32-6.75,9.52-5.69,2.24.56,4,2.04,5.01,3.93-.18-3.35-2.5-6.33-5.92-7.19-4.2-1.06-8.46,1.49-9.52,5.69-.49,1.96-.19,3.93.69,5.59-.04-.77.03-1.55.23-2.33Z"/>
                </g>
                <g>
                  <circle class="cls-31" cx="312.72" cy="298.05" r="10.03"/>
                  <circle class="cls-4" cx="311.01" cy="295.19" r="10.03"/>
                  <path class="cls-16" d="m304.82,296.11c1.06-4.2,5.32-6.75,9.52-5.69,2.24.56,4,2.04,5.01,3.93-.18-3.35-2.5-6.33-5.92-7.19-4.2-1.06-8.46,1.49-9.52,5.69-.49,1.96-.19,3.93.69,5.59-.04-.77.03-1.55.23-2.33Z"/>
                </g>
                <ellipse class="cls-17" cx="322.43" cy="257.66" rx="2.51" ry="2.75" transform="translate(-6.11 507.48) rotate(-75.88)"/>
                <ellipse class="cls-17" cx="339.04" cy="284.36" rx="2.51" ry="2.75" transform="translate(-19.45 543.77) rotate(-75.88)"/>
                <ellipse class="cls-17" cx="308.66" cy="299.47" rx="2.51" ry="2.75" transform="translate(-57.06 525.74) rotate(-75.88)"/>
                <ellipse class="cls-17" cx="291.01" cy="272.71" rx="1.76" ry="1.93" transform="translate(-44.46 488.39) rotate(-75.88)"/>
              </g>
              <g>
                <path class="cls-16" d="m244.44,303.08c2.56-10.16,12.86-16.32,23.02-13.77,2.97.75,5.59,2.16,7.76,4.04-2.28-3.23-5.68-5.7-9.82-6.74-9.2-2.31-18.53,3.27-20.84,12.46-.47,1.89-.6,3.77-.44,5.6.09-.53.19-1.06.32-1.59Z"/>
                <path class="cls-16" d="m278.02,301.78c.11.19.24.37.34.57,0-.1-.02-.19-.03-.29-.1-.1-.21-.19-.31-.28Z"/>
              </g>
              <g class="cls-9">
                <path class="cls-16" d="m273.83,306.94c-3.75,7.9-13.21,11.27-21.11,7.51-2.31-1.1-4.22-2.69-5.69-4.58,1.34,3.02,3.72,5.6,6.94,7.13,7.15,3.4,15.71.35,19.11-6.8.7-1.47,1.1-2.99,1.28-4.52-.16.42-.33.84-.52,1.25Z"/>
                <path class="cls-16" d="m246.12,302.52c-.06-.17-.13-.34-.19-.52-.01.08-.01.16-.02.24.07.1.14.19.21.28Z"/>
              </g>
              <g>
                <path class="cls-16" d="m329.47,238.81c4.33,1.09,8.32,2.86,11.91,5.16-4.23-3.57-9.26-6.24-14.92-7.67-21.1-5.31-42.79,8.64-48.45,31.14-.3,1.19-.54,2.37-.73,3.56,6.78-23.48,29.79-37.83,52.19-32.2Z"/>
                <polygon class="cls-16" points="348.85 252.38 348.85 252.39 348.85 252.39 348.85 252.38"/>
              </g>
              <path class="cls-29" d="m107.6,206.2l-38.15,79.73c-6.21,13.5-3.31,29.45,7.25,39.9h0c13.29,13.15,34.52,13.67,48.44,1.19l53.92-48.33-71.47-72.48Z"/>
              <g class="cls-12">
                <polygon class="cls-29" points="99.24 223.68 107.6 206.2 111.84 210.51 99.24 223.68"/>
                <path class="cls-29" d="m116.1,314.18l47.76-21.87-38.71,34.7c-13.92,12.48-35.15,11.96-48.44-1.19-7.64-7.56-11.25-17.99-10.32-28.29,9.16,18.05,30.69,25.36,49.72,16.65Z"/>
              </g>
              <circle class="cls-31" cx="149.96" cy="235.92" r="51.74"/>
              <rect class="cls-29" x="148.1" y="166.55" width="37.18" height="13.13" rx="5.36" ry="5.36" transform="translate(286.1 381.67) rotate(-165.88)"/>
              <circle class="cls-29" cx="186.41" cy="294.29" r="30.69"/>
              <circle class="cls-31" cx="188.36" cy="286.56" r="30.69"/>
              <path class="cls-31" d="m187.23,206.36l.73-17.14c.28-6.48-3.09-12.57-8.73-15.78h0c-7.71-4.39-16.61-6.24-25.43-5.28l-2.43.26c-5.82.63-10.93,4.16-13.57,9.39l-7.24,14.3,56.66,14.26Z"/>
              <path class="cls-4" d="m177.71,178.6c-7.26-4.14-15.65-5.88-23.96-4.98l-2.29.25c-2.43.26-4.72,1.07-6.74,2.3,2.41-2.64,5.71-4.37,9.34-4.76l2.08-.23c7.56-.82,15.18.76,21.79,4.52,4.66,2.66,7.51,7.62,7.48,12.96-1.09-4.19-3.82-7.86-7.7-10.07Z"/>
              <circle class="cls-31" cx="148.36" cy="233.23" r="46.87"/>
              <circle class="cls-15" cx="148.36" cy="233.23" r="46.87"/>
              <ellipse class="cls-15" cx="149.17" cy="235.45" rx="44.92" ry="45.54" transform="translate(-115.56 322.66) rotate(-75.88)"/>
              <path class="cls-28" d="m187.02,212.03c1.38,6.47,1.35,13.35-.37,20.21-6.02,23.92-30.28,38.43-54.2,32.41-13.37-3.36-23.8-12.44-29.35-23.96,3.45,16.12,15.72,29.7,32.78,34,23.92,6.02,48.18-8.49,54.2-32.41,2.65-10.54,1.31-21.15-3.06-30.24Z"/>
              <circle class="cls-29" cx="188.36" cy="286.56" r="23.91"/>
              <circle class="cls-4" cx="186.53" cy="283.51" r="18.9"/>
              <g>
                <ellipse class="cls-17" cx="157.47" cy="216.16" rx="2.51" ry="2.75" transform="translate(-90.58 316.13) rotate(-75.88)"/>
                <ellipse class="cls-17" cx="130.2" cy="231.82" rx="2.51" ry="2.75" transform="translate(-126.38 301.53) rotate(-75.88)"/>
                <ellipse class="cls-17" cx="149.81" cy="259.5" rx="2.51" ry="2.75" transform="translate(-138.4 341.47) rotate(-75.88)"/>
                <ellipse class="cls-17" cx="178.03" cy="244.28" rx="1.76" ry="1.93" transform="translate(-102.31 357.33) rotate(-75.88)"/>
                <g>
                  <path class="cls-31" d="m162.99,223.79l-5.38,3c-1.25.45-2.65.1-3.54-.89l-3.32-5.19c-.72-.8-.99-1.91-.73-2.96l3.12-12.41c.44-1.74,2.2-2.8,3.95-2.36l8.7,2.19c1.74.44,2.8,2.2,2.36,3.95l-3.12,12.41c-.26,1.05-1.03,1.89-2.04,2.26Z"/>
                  <path class="cls-4" d="m161.09,221.88l-5.38,3c-1.25.45-2.65.1-3.54-.89l-3.32-5.19c-.72-.8-.99-1.91-.73-2.96l3.12-12.41c.44-1.74,2.2-2.8,3.95-2.36l8.7,2.19c1.74.44,2.8,2.2,2.36,3.95l-3.12,12.41c-.26,1.05-1.03,1.89-2.04,2.26Z"/>
                  <path class="cls-16" d="m152.25,220.2c-.72-.8-.99-1.91-.73-2.96l2.58-10.24c.44-1.74,2.2-2.8,3.95-2.36l6.29,1.58c.18.04.34.11.51.18-.36-.98-1.18-1.77-2.26-2.05l-6.29-1.58c-1.74-.44-3.51.62-3.95,2.36l-2.58,10.24c-.26,1.05,0,2.15.73,2.96l3.32,5.19c.3.34.67.6,1.06.78l-2.63-4.1Z"/>
                </g>
                <g>
                  <path class="cls-31" d="m156.73,248.68l-3.32-5.19c-.89-.99-2.29-1.34-3.54-.89l-5.38,3c-1.01.37-1.78,1.22-2.04,2.26l-3.12,12.41c-.44,1.74.62,3.51,2.36,3.95l8.7,2.19c1.74.44,3.51-.62,3.95-2.36l3.12-12.41c.26-1.05,0-2.15-.73-2.96Z"/>
                  <path class="cls-4" d="m154.83,246.79l-3.32-5.19c-.89-.99-2.29-1.34-3.54-.89l-5.38,3c-1.01.37-1.78,1.22-2.04,2.26l-3.12,12.41c-.44,1.74.62,3.51,2.36,3.95l8.7,2.19c1.74.44,3.51-.62,3.95-2.36l3.12-12.41c.26-1.05,0-2.15-.73-2.96Z"/>
                  <path class="cls-16" d="m146.24,244.09c-1.01.37-1.78,1.22-2.04,2.26l-2.58,10.24c-.44,1.74.62,3.51,2.36,3.95l6.29,1.58c.18.04.36.06.53.08-.78.69-1.87,1-2.96.73l-6.29-1.58c-1.74-.44-2.8-2.2-2.36-3.95l2.58-10.24c.26-1.05,1.03-1.89,2.04-2.26l5.38-3c.43-.16.87-.21,1.31-.18l-4.26,2.37Z"/>
                </g>
                <g>
                  <path class="cls-31" d="m162.74,243.94l-3-5.38c-.45-1.25-.1-2.65.89-3.54l5.19-3.32c.8-.72,1.91-.99,2.96-.73l12.41,3.12c1.74.44,2.8,2.2,2.36,3.95l-2.19,8.7c-.44,1.74-2.2,2.8-3.95,2.36l-12.41-3.12c-1.05-.26-1.89-1.03-2.26-2.04Z"/>
                  <path class="cls-4" d="m164.65,242.04l-3-5.38c-.45-1.25-.1-2.65.89-3.54l5.19-3.32c.8-.72,1.91-.99,2.96-.73l12.41,3.12c1.74.44,2.8,2.2,2.36,3.95l-2.19,8.7c-.44,1.74-2.2,2.8-3.95,2.36l-12.41-3.12c-1.05-.26-1.89-1.03-2.26-2.04Z"/>
                  <path class="cls-16" d="m166.34,233.2c.8-.72,1.91-.99,2.96-.73l10.24,2.58c1.74.44,2.8,2.2,2.36,3.95l-1.58,6.29c-.04.18-.11.34-.18.51.98-.36,1.77-1.18,2.05-2.26l1.58-6.29c.44-1.74-.62-3.51-2.36-3.95l-10.24-2.58c-1.05-.26-2.15,0-2.96.73l-5.19,3.32c-.34.3-.6.67-.78,1.06l4.1-2.63Z"/>
                </g>
                <g>
                  <path class="cls-31" d="m137.85,237.68l5.19-3.32c.99-.89,1.34-2.29.89-3.54l-3-5.38c-.37-1.01-1.22-1.78-2.26-2.04l-12.41-3.12c-1.74-.44-3.51.62-3.95,2.36l-2.19,8.7c-.44,1.74.62,3.51,2.36,3.95l12.41,3.12c1.05.26,2.15,0,2.96-.73Z"/>
                  <path class="cls-4" d="m139.74,235.77l5.19-3.32c.99-.89,1.34-2.29.89-3.54l-3-5.38c-.37-1.01-1.22-1.78-2.26-2.04l-12.41-3.12c-1.74-.44-3.51.62-3.95,2.36l-2.19,8.7c-.44,1.74.62,3.51,2.36,3.95l12.41,3.12c1.05.26,2.15,0,2.96-.73Z"/>
                  <path class="cls-16" d="m142.44,227.19c-.37-1.01-1.22-1.78-2.26-2.04l-10.24-2.58c-1.74-.44-3.51.62-3.95,2.36l-1.58,6.29c-.04.18-.06.36-.08.53-.69-.78-1-1.87-.73-2.96l1.58-6.29c.44-1.74,2.2-2.8,3.95-2.36l10.24,2.58c1.05.26,1.89,1.03,2.26,2.04l3,5.38c.16.43.21.87.18,1.31l-2.37-4.26Z"/>
                </g>
              </g>
              <g>
                <path class="cls-16" d="m170.89,284.58c2.56-10.16,12.86-16.32,23.02-13.77,2.97.75,5.59,2.16,7.76,4.04-2.28-3.23-5.68-5.7-9.82-6.74-9.2-2.31-18.53,3.27-20.84,12.46-.47,1.89-.6,3.77-.44,5.6.09-.53.19-1.06.32-1.59Z"/>
                <path class="cls-16" d="m204.47,283.27c.11.19.24.37.34.57,0-.1-.02-.19-.03-.29-.1-.1-.21-.19-.31-.28Z"/>
              </g>
              <g class="cls-9">
                <path class="cls-16" d="m200.28,288.44c-3.75,7.9-13.21,11.27-21.11,7.51-2.31-1.1-4.22-2.69-5.69-4.58,1.34,3.02,3.72,5.6,6.94,7.13,7.15,3.4,15.71.35,19.11-6.8.7-1.47,1.1-2.99,1.28-4.52-.16.42-.33.84-.52,1.25Z"/>
                <path class="cls-16" d="m172.57,284.02c-.06-.17-.13-.34-.19-.52-.01.08-.01.16-.02.24.07.1.14.19.21.28Z"/>
              </g>
              <g>
                <path class="cls-16" d="m159.75,196.11c4.33,1.09,8.32,2.86,11.91,5.16-4.23-3.57-9.26-6.24-14.92-7.67-21.1-5.31-42.79,8.64-48.45,31.14-.3,1.19-.54,2.37-.73,3.56,6.78-23.48,29.79-37.83,52.19-32.2Z"/>
                <polygon class="cls-16" points="179.12 209.68 179.13 209.69 179.12 209.68 179.12 209.68"/>
              </g>
              <rect class="cls-4" x="202.85" y="216.4" width="69.37" height="7.77" rx="3.88" ry="3.88" transform="translate(60.92 -51.3) rotate(14.12)"/>
              <circle class="cls-5" cx="94.54" cy="262.34" r="6.28"/>
              <circle class="cls-16" cx="175.64" cy="211.77" r="2.87"/>
              <circle class="cls-4" cx="213.44" cy="228.54" r="4.16"/>
              <circle class="cls-18" cx="197.42" cy="279.41" r="3.88"/>
              <g>
                <rect class="cls-29" x="211" y="253.22" width="15.04" height="6" rx=".91" ry=".91" transform="translate(69.12 -45.57) rotate(14.12)"/>
                <rect class="cls-4" x="210.48" y="250.85" width="15.04" height="6" rx=".91" ry=".91" transform="translate(68.52 -45.52) rotate(14.12)"/>
                <path class="cls-16" d="m212.43,252.11c.12-.49.62-.79,1.11-.66l10.85,2.73c.1.03.2.08.28.13h0c.12-.5-.17-.99-.66-1.12l-10.85-2.73c-.49-.12-.99.17-1.11.66l-.65,2.59c-.1.38.07.77.38.98l.65-2.58Z"/>
              </g>
              <g>
                <rect class="cls-29" x="241.94" y="261.01" width="15.04" height="6" rx=".91" ry=".91" transform="translate(71.95 -52.89) rotate(14.12)"/>
                <rect class="cls-4" x="241.42" y="258.63" width="15.04" height="6" rx=".91" ry=".91" transform="translate(71.36 -52.83) rotate(14.12)"/>
                <path class="cls-16" d="m243.37,259.89c.12-.49.62-.79,1.11-.66l10.85,2.73c.1.03.2.08.28.13h0c.12-.5-.17-.99-.66-1.12l-10.85-2.73c-.49-.12-.99.17-1.11.66l-.65,2.59c-.1.38.07.77.38.98l.65-2.58Z"/>
              </g>
              <g>
                <rect class="cls-29" x="222.78" y="272.51" width="15.04" height="6" rx=".91" ry=".91" transform="translate(74.18 -47.86) rotate(14.12)"/>
                <rect class="cls-4" x="222.26" y="270.13" width="15.04" height="6" rx=".91" ry=".91" transform="translate(73.58 -47.81) rotate(14.12)"/>
                <path class="cls-16" d="m224.21,271.39c.12-.49.62-.79,1.11-.66l10.85,2.73c.1.03.2.08.28.13h0c.12-.5-.17-.99-.66-1.12l-10.85-2.73c-.49-.12-.99.17-1.11.66l-.65,2.59c-.1.38.07.77.38.98l.65-2.58Z"/>
              </g>
              <circle class="cls-19" cx="153.69" cy="178.65" r="1.97"/>
              <circle class="cls-19" cx="321.41" cy="220.47" r="1.61"/>
              <circle class="cls-5" cx="85.78" cy="273.04" r="1.88"/>
              <circle class="cls-5" cx="347.61" cy="362.27" r="7.84"/>
              <circle class="cls-5" cx="350.27" cy="343.22" r="2.25"/>
            </g>
            <g>
              <rect class="cls-2" x="444.25" y="347.66" width="10.62" height="14.76"/>
              <polygon class="cls-2" points="423.15 347.66 412.53 347.66 410.02 362.41 420.64 362.41 423.15 347.66"/>
              <g>
                <g>
                  <g>
                    <path class="cls-2" d="m388.37,174.87l-18.62-18.62c-.23-.23-.56-.31-.87-.21l-3.73,1.22c-.51.16-.74.75-.49,1.22l14.2,26.74c2.05,3.87,7.18,4.81,10.48,1.93l6.01-5.27c.4-.35.39-.97-.02-1.31l-6.89-5.64s-.04-.04-.06-.06Z"/>
                    <path class="cls-2" d="m371.82,159.05s-.2-6.29-4.26-10.02c-2.67-2.46-7.41-3.53-10.3-1.32h0l11.93,17.79,2.63-6.45Z"/>
                  </g>
                  <g>
                    <path class="cls-2" d="m410.39,170.49l-22.39,4.01s-2.56,14.65-1.85,14.13,28.16-5.96,28.16-5.96l-3.92-12.18Z"/>
                    <path class="cls-22" d="m432.35,177.85s-.42-12.12-11.43-11.18c-14.34,1.22-21.44,3.06-21.44,3.06l-1.11,20.56,33.98-12.43Z"/>
                  </g>
                  <path class="cls-25" d="m440.15,163.77l-18.57,2.74c-1.88.28-3.28,1.88-3.3,3.79l-.44,61.7,47.57.12-3.33-56.08-1.54-5.21c-.72-2.44-2.77-4.24-5.28-4.64l-15.1-2.42Z"/>
                  <g>
                    <polygon class="cls-2" points="458.69 188.76 473.96 203.89 480.63 189.5 470.5 178.23 458.69 188.76"/>
                    <path class="cls-22" d="m452.38,177.81c-3.54-5.8,1.43-13.35,8.08-11.95.6.13,1.15.33,1.62.61,5.58,3.38,15.21,14.09,15.21,14.09l-15.53,12.6-9.38-15.36Z"/>
                  </g>
                  <g>
                    <path class="cls-2" d="m480,190.01l8.15-26.5,5.88,1.58-2.32,31.89s-1.95,15.2-17.75,6.9l6.04-13.88Z"/>
                    <path class="cls-2" d="m488.14,163.52s-1.98-6.54-.58-11.71c.95-3.51,4.54-5.63,8.13-5.08h0s-1.88,21.17-1.88,21.17l-5.68-4.39Z"/>
                  </g>
                </g>
                <g>
                  <path class="cls-26" d="m427.75,130.98s-7.36,6.92-.11,9.43l.11-9.43Z"/>
                  <path class="cls-22" d="m432.61,142.89c.09,3.33-2.45,6.12-5.68,6.22-3.23.1-5.92-2.52-6.01-5.85-.09-3.33,2.45-6.12,5.68-6.22,3.23-.1,5.92,2.52,6.01,5.85Z"/>
                  <path class="cls-2" d="m433.47,154.15l-.39,9.81c-.14,3.44,1.84,5.36,5.12,5.46h0c2.8.08,5.94-1.16,5.93-4.2l-.11-15.46-10.56,4.39Z"/>
                  <path class="cls-24" d="m433.2,163.96s7.96-2.3,10.8-11.2c.89-2.8-10.5.38-10.5.38l-.3,10.82Z"/>
                  <path class="cls-2" d="m438.29,157.15h0c-5.58.52-10.6-3.61-11.19-8.31l-1.18-9.83c-.74-5.88,3.18-11.28,8.85-12.2h0c5.8-.94,12.29,2.99,13.23,8.99l.82,7.67c.75,6.9-3.91,12.6-10.54,13.68Z"/>
                  <path class="cls-26" d="m420.72,127.8c1.21-1.84,3.03-3.33,5.01-4.3,3.9-1.9,8.22-1.29,12.4-1.35,4.94-.06,9.15,2.61,10.68,5.56,0,0,4.1-.25,4.66,4.39.73,6.01-6.5,15.94-6.5,15.94l-.81-7.85c.02.16-2.31-.64-2.54-.79-.64-.43-1.11-1.04-1.42-1.74-.61-1.4-.47-2.85-.39-4.32-.49.02-2.59.9-3.25,1.18-4.79,2.06-9.96,3.62-15.16,3.18-.79-.07-1.6-.19-2.28-.59-1.16-.69-1.73-2.08-1.88-3.42-.25-2.16.36-4.17,1.49-5.89Z"/>
                  <g>
                    <path class="cls-21" d="m453.68,144.92c.06,2.25-1.65,4.12-3.83,4.19-2.18.07-3.99-1.7-4.05-3.94-.06-2.25,1.65-4.12,3.83-4.19,2.18-.07,3.99,1.7,4.05,3.94Z"/>
                    <path class="cls-7" d="m448.42,146.07s-.08-2.95,2.66-2.57"/>
                  </g>
                  <g>
                    <g>
                      <path class="cls-22" d="m442.94,143.34c-.95,4.38,1.19,8.56,5.67,9.53,3.17.69,4.87-2.66,5.82-7.04.95-4.38-.85-8.48-4.03-9.17-3.17-.69-6.51,2.3-7.46,6.68Z"/>
                      <path class="cls-25" d="m444.59,143.7c-.95,4.38.85,8.48,4.03,9.17,3.17.69,6.51-2.3,7.46-6.68.95-4.38-.85-8.48-4.03-9.17-3.17-.69-6.51,2.3-7.46,6.68Z"/>
                    </g>
                    <path class="cls-25" d="m451.89,138.47s.61-3.76-.15-7.85c-.95-5.17-4.72-8.8-9.52-9.66-.37-.07-.75-.13-1.16-.18-1.4-.18-2.92-.1-4.2.6-.33.18-.64.39-.91.62,0,0,6.35.16,9.34,3.79,3.37,4.09,4.18,9.65,3.9,13.36l2.69-.68Z"/>
                  </g>
                  <path class="cls-2" d="m447.95,165.02l-7.8-1.25-10.37,1.53s-.64,6.05,8.13,6.31c8.77.26,10.04-6.59,10.04-6.59Z"/>
                </g>
                <rect class="cls-26" x="419.22" y="232.12" width="44.66" height="5.09"/>
                <polygon class="cls-26" points="419.22 237.21 409.25 354.35 424.44 354.35 440.32 272.04 438.86 237.21 419.22 237.21"/>
                <polygon class="cls-30" points="433.51 237.21 463.88 232.12 456.33 356.71 442.72 356.71 433.51 237.21"/>
              </g>
              <polygon class="cls-29" points="373.07 140.4 385.6 157.78 352.84 171.62 343.5 149.76 373.07 140.4"/>
              <polygon class="cls-15" points="346.46 151.52 372.56 143.27 381.96 156.3 353.62 168.27 346.46 151.52"/>
              <polygon class="cls-16" points="362.28 146.52 368.48 144.56 367.2 162.53 361.69 164.86 362.28 146.52"/>
              <polygon class="cls-16" points="358.86 147.46 360.57 146.92 359.71 165.52 358.28 166.12 358.86 147.46"/>
              <path class="cls-29" d="m431.49,366.54h24.81v-4.58c0-.63-.61-1.14-1.4-1.18-1.68-.08-4.45-.4-5.81-1.67-.55-.51-1.32-.82-2.15-.82h-4.18s-12.95,4.38-12.95,4.38c-1.89.64-2.98,2.24-2.62,3.86h0s4.31,0,4.31,0Z"/>
              <rect class="cls-30" x="427.12" y="366.54" width="29.18" height="1.47"/>
              <path class="cls-29" d="m398.23,365.05h24.81v-4.58c0-.63-.61-1.14-1.4-1.18-1.68-.08-4.45-.4-5.81-1.67-.55-.51-1.32-.82-2.15-.82h-4.18s-12.95,4.38-12.95,4.38c-1.89.64-2.98,2.24-2.62,3.86h0s4.31,0,4.31,0Z"/>
              <rect class="cls-30" x="393.86" y="365.05" width="29.18" height="1.47"/>
            </g>
            <g>
              <rect class="cls-2" x="210.88" y="263.62" width="10.62" height="14.76" transform="translate(366.73 583.28) rotate(-167.16)"/>
              <polygon class="cls-2" points="257.01 258.93 267.63 258.93 270.13 273.68 259.51 273.68 257.01 258.93"/>
              <g>
                <path class="cls-2" d="m265.08,118.77l23.78-11.32c.29-.14.64-.1.89.09l3.11,2.4c.42.32.45.95.06,1.31l-22.33,20.46c-3.23,2.96-8.38,2.13-10.52-1.69l-3.91-6.98c-.26-.46-.04-1.04.46-1.22l8.38-3.01s.05-.02.08-.03Z"/>
                <path class="cls-2" d="m285.97,109.41s2.3-5.86,7.37-8.02c3.34-1.42,8.16-.84,10.15,2.2h0l-17.19,12.77-.32-6.96Z"/>
              </g>
              <path class="cls-2" d="m245.79,107.28l19.76,11.27s-2.49,14.66-2.98,13.94-24.55-15.04-24.55-15.04l7.77-10.17Z"/>
              <path class="cls-26" d="m224.18,109.4s4.06-11.43,14.27-7.22c13.31,5.49,19.52,9.38,19.52,9.38l-5.14,19.94-28.65-22.1Z"/>
              <path class="cls-30" d="m217.05,99.5l18.57,2.74c1.88.28,3.28,1.88,3.3,3.79l.44,66.92-47.57-5.09,3.33-56.08,1.54-5.21c.72-2.44,2.77-4.24,5.28-4.64l15.1-2.42Z"/>
              <polygon class="cls-2" points="197.32 125.66 183.24 139.62 176.57 125.23 186.7 113.95 197.32 125.66"/>
              <path class="cls-26" d="m204.82,113.53c3.54-5.8-1.43-13.35-8.08-11.95-.6.13-1.15.33-1.62.61-5.58,3.38-15.21,14.09-15.21,14.09l15.53,12.6,9.38-15.36Z"/>
              <g>
                <path class="cls-26" d="m229.45,66.7s7.36,6.92.11,9.43l-.11-9.43Z"/>
                <path class="cls-23" d="m224.58,78.62c-.09,3.33,2.45,6.12,5.68,6.22,3.23.1,5.92-2.52,6.01-5.85.09-3.33-2.45-6.12-5.68-6.22-3.23-.1-5.92,2.52-6.01,5.85Z"/>
                <path class="cls-2" d="m223.72,89.87l.39,9.81c.14,3.44-1.84,5.36-5.12,5.46h0c-2.8.08-5.94-1.16-5.93-4.2l.11-15.46,10.56,4.39Z"/>
                <path class="cls-24" d="m224,99.68s-7.96-2.3-10.8-11.2c-.89-2.8,10.5.38,10.5.38l.3,10.82Z"/>
                <path class="cls-2" d="m218.91,92.87h0c5.58.52,10.6-3.61,11.19-8.31l1.18-9.83c.74-5.88-3.18-11.28-8.85-12.2h0c-5.8-.94-12.29,2.99-13.23,8.99l-.82,7.67c-.75,6.9,3.91,12.6,10.54,13.68Z"/>
                <path class="cls-26" d="m236.91,63.31c-.57-1.3-2.07-2.09-3.49-1.94.19-1.52-.82-3.04-2.22-3.65-1.14-.5-2.38-.32-3.31.51-.52-.67-1.26-1.18-2.1-1.33s-1.75.12-2.31.75c-.19-.45-.75-.63-1.24-.66-1.03-.07-1.87.26-2.76.73-.72.38-1.23.24-2,.25-2.02.01-4.23.97-5.89,2.06-.93.62-1.79,1.36-2.47,2.25-.24.31-.47.9-.85.99-.48.12-1.57-.55-2.14-.59-.77-.04-1.59.22-2.04.85s-.34,1.64.33,2.01c-.66-.37-1.91,1.69-2.05,2.11-.36,1.07-.12,2.22.58,3.09.34.42,1.24.64,1.41,1.07.28.67-.72,1.44-.16,2.23.21.3.58.44.93.53,1.14.29,1.59-.06,1.61,1.26.01,1.19.04,2.31.6,3.39.82,1.57,1.83,3.09,2.87,4.52,0,0,.81-7.8.81-7.85,0,.03,2.09-.59,2.28-.63,1.03-.24,1.88-.55,2.23-1.71.03-.11.07-.24.16-.31.19-.13.42.05.59.19.89.76,2.19.93,3.32.62s2.11-1.04,2.91-1.9c.49.45.99.91,1.59,1.19.86.41,1.91.42,2.78.02s1.55-1.19,1.81-2.11c1.8-.24,3.75.44,5.39-.36,1.38-.68,2.13-2.43,1.66-3.89,1.23-.69,1.73-2.39,1.16-3.71Z"/>
                <g>
                  <path class="cls-21" d="m203.52,80.65c-.06,2.25,1.65,4.12,3.83,4.19,2.18.07,3.99-1.7,4.05-3.94.06-2.25-1.65-4.12-3.83-4.19-2.18-.07-3.99,1.7-4.05,3.94Z"/>
                  <path class="cls-7" d="m208.77,81.79s.08-2.95-2.66-2.57"/>
                </g>
                <g>
                  <g>
                    <path class="cls-23" d="m214.26,79.06c.95,4.38-1.19,8.56-5.67,9.53-3.17.69-4.87-2.66-5.82-7.04-.95-4.38.85-8.48,4.03-9.17,3.17-.69,6.51,2.3,7.46,6.68Z"/>
                    <path class="cls-20" d="m212.61,79.42c.95,4.38-.85,8.48-4.03,9.17-3.17.69-6.51-2.3-7.46-6.68-.95-4.38.85-8.48,4.03-9.17,3.17-.69,6.51,2.3,7.46,6.68Z"/>
                  </g>
                  <path class="cls-20" d="m205.3,74.2s-.61-3.76.15-7.85c.95-5.17,4.72-8.8,9.52-9.66.37-.07.75-.13,1.16-.18,1.4-.18,2.92-.1,4.2.6.33.18.64.39.91.62,0,0-6.35.16-9.34,3.79-3.37,4.09-4.18,9.65-3.9,13.36l-2.69-.68Z"/>
                </g>
                <path class="cls-2" d="m209.25,100.74l7.8-1.25,10.37,1.53s.64,6.05-8.13,6.31-10.04-6.59-10.04-6.59Z"/>
              </g>
              <rect class="cls-26" x="193.32" y="167.84" width="44.66" height="5.09" transform="translate(431.3 340.78) rotate(180)"/>
              <path class="cls-29" d="m231.26,286.23l-24.19-5.51,1.02-4.46c.14-.61.85-.98,1.62-.84,1.66.3,4.42.59,6.04-.34.64-.37,1.47-.5,2.28-.32l4.07.93,11.65,7.15c1.7,1.04,2.4,2.84,1.7,4.34h0s-4.2-.96-4.2-.96Z"/>
              <rect class="cls-25" x="206.54" y="283.94" width="29.18" height="1.47" transform="translate(373.44 611.4) rotate(-167.16)"/>
              <path class="cls-29" d="m281.92,276.32h-24.81s0-4.58,0-4.58c0-.63.61-1.14,1.4-1.18,1.68-.08,4.45-.4,5.81-1.67.55-.51,1.32-.82,2.15-.82h4.18s12.95,4.38,12.95,4.38c1.89.64,2.98,2.24,2.62,3.86h0s-4.31,0-4.31,0Z"/>
              <rect class="cls-25" x="257.12" y="276.32" width="29.18" height="1.47" transform="translate(543.41 554.12) rotate(180)"/>
              <path class="cls-22" d="m216.91,181.77l3.94-14,30.05.53c5.65.1,10.46,4.14,11.53,9.69l13.59,85.43h-21.32s-12.69-64.64-12.69-64.64l-27.51,1.01,2.43-18.02Z"/>
              <path class="cls-25" d="m188.81,177.26l2.67-12.03,36.21,3.13c8.77,2.04,11.88,5.57,11.88,17.99l-13.97,81.74-17.3-.05,4.32-69.25-10.48-1.35c-6.22-.8-11.39-5.17-13.23-11.17h0c-.9-2.93-.93-6.05-.1-9Z"/>
              <path class="cls-29" d="m165.29,85.72c-.71-1.75-.75-3.73.19-5.44,1.53-2.78,4.04-4.88,6.32-7.02,1.94-1.82,3.9-4.3,6.85-4.02,1.14.11,2.45.57,3.87,1.31,1.1.58,2.08,1.39,3.14,2.06.28.18.52.41.71.66.06.08.12.17.17.26.02.04.04.08.06.12.04.07.08.15.11.23.02.05.04.09.06.14.03.08.06.17.08.25,0,.04.02.07.03.11.03.12.05.24.06.37,0,.04,0,.07,0,.11,0,.1,0,.2,0,.29,0,.04,0,.08,0,.12-.01.13-.03.26-.06.39-.35,1.47-1.78,2.42-3.27,2.17l-3.32-.57c.37.89.21,1.95-.5,2.68-.76.79-1.91.96-2.85.52l-1,1.05c.48.92.36,2.08-.4,2.87-.71.74-1.76.94-2.66.61l.71,3.3c.32,1.48-.57,2.95-2.03,3.36-.13.04-.26.06-.39.08-.04,0-.08,0-.12.01-.1,0-.2.01-.29.01-.04,0-.07,0-.11,0-.12,0-.25-.02-.37-.04-.04,0-.08-.02-.11-.03-.09-.02-.17-.04-.25-.07-.05-.02-.1-.03-.14-.05-.08-.03-.15-.06-.23-.1-.04-.02-.08-.04-.12-.06-.09-.05-.18-.1-.26-.16-.27-.18-.51-.41-.7-.68-.02-.03-.04-.06-.06-.08-.88-1.27-1.92-2.51-2.68-3.86-.16-.29-.31-.59-.43-.9Z"/>
              <g>
                <path class="cls-2" d="m177.2,125.74l-8.15-26.5-5.88,1.58,2.32,31.89s1.95,15.2,17.75,6.9l-6.04-13.88Z"/>
                <path class="cls-2" d="m169.05,99.24s1.98-6.54.58-11.71c-.95-3.51-4.54-5.63-8.13-5.08h0s1.88,21.17,1.88,21.17l5.68-4.39Z"/>
              </g>
            </g>
          </g>
        </g>
      </g>
    </g>
  </g>
</svg>