<svg xmlns="http://www.w3.org/2000/svg" viewBox="0 0 397.99 346.57"><defs><style>.cls-1{isolation:isolate;}.cls-2{fill:#fff6cf;}.cls-3{fill:#eddeae;}.cls-4{fill:#381d0b;}.cls-5{fill:#4c230c;}.cls-6{fill:#682f13;}.cls-7{fill:#844914;}.cls-8{fill:#ecb67b;}.cls-9{fill:#e2a05d;}.cls-10{fill:#ffe6bd;}.cls-11{fill:#ffe9d2;}.cls-12{fill:#ffc892;}.cls-13{fill:#992b2b;}.cls-14{fill:#bc4646;}.cls-15{mix-blend-mode:multiply;}.cls-16{fill:#a85000;}.cls-17{fill:#a0510a;}.cls-18{fill:#d67116;}.cls-19{fill:#773a08;}.cls-20{fill:#b75f08;}</style></defs><g class="cls-1"><g id="Layer_2" data-name="Layer 2"><g id="OBJECTS"><path class="cls-2" d="M54.23,95.34C38.59,114,0,132.42,0,165.64,0,187.41,2,212,38.5,231.41c29.12,15.48,24.6,52,24.6,52,1.38,26.53,24,36.92,50.87,39s44.85-19.67,66.9,1.32,61.62,39.59,90.77-2.34c23.19-33.35,29.89-47.35,73.85-49.35,55.41-2.52,63.84-64.42,39.85-91q-1.8-2-3.58-3.82C359.13,153.92,343.29,149.88,346,108c4-63.11-19.9-93.14-53-103.11-35.75-10.77-72.76,24.4-101.64,13.84C160.37,7.41,137.43-10.09,103,7.41,70.17,24.08,69.87,76.74,54.23,95.34Z"/><path class="cls-3" d="M327.84,232.9l-5.18-21L218.33,197.09l-102-19.5-10.9,10.32L39.78,269.2l127.32-5c-.76,2.21,0,5.31.48,7.71.74,3.83-8.75,9-15.58,14.91s-13.87,20.67-13.87,20.67,15.33,2.74,15.76,2.79,19.61-37.87,20.77-41.06a9.61,9.61,0,0,1,2.26-3.15l145.67,58.24Z"/><path class="cls-4" d="M359.31,77.37,108,174.64l-5.52,6.46c24.37-4,23.06,6.75,37.19,8.32C125.26,198.3,112,221.56,97.51,225c-11.79,2.8-33.8,8.51-41.56,10.53L35,260.09l4.82,9.11L356.17,164.14,363,81.76Z"/><path class="cls-4" d="M300.89,264.76c-10.41-8.89-7.66-35.62-14.7-49.51,14,4.37,24.93-4.24,47,13.49l.73-15L119,51.54,40.7,107l-4.13,5.52,286,211.75,6.21-4.75,1.4-28.86C324.56,285.62,309.28,271.91,300.89,264.76Z"/><path class="cls-4" d="M333.2,228.74l-5.36,4.16a39.3,39.3,0,0,0-16.28-9.7c-9.76-2.76-13.93,1.66-27.25-3.5a6.37,6.37,0,0,1-.8-8.5l30.09,1Z"/><path class="cls-5" d="M300.89,264.76c-10.41-8.89-7.66-35.62-14.7-49.51,14,4.37,24.93-4.24,47,13.49l.73-15L106.54,45.61,40.7,107,328.8,319.54l1.4-28.86C324.56,285.62,309.28,271.91,300.89,264.76Z"/><polygon class="cls-4" points="221.6 130.67 123.98 168.46 192.03 218.65 294.55 184.61 221.6 130.67"/><path class="cls-4" d="M102.49,181.1l3,6.81s7.24-4,14.47,0,13.33,9.85,24.7,6.86a18.35,18.35,0,0,0,0-12.19s-25.73-7.91-26.3-7.91S102.49,181.1,102.49,181.1Z"/><path class="cls-6" d="M108,174.64l-5.52,6.46c24.37-4,23.06,6.75,37.19,8.32C125.26,198.3,112,221.56,97.51,225c-11.79,2.8-33.8,8.51-41.56,10.53L35,260.09,350.88,158.73l8.43-81.36Z"/><polygon class="cls-4" points="222.16 125.96 106.54 164.34 175.31 215.25 182.81 212.64 222.16 125.96"/><polygon class="cls-5" points="222.16 125.96 114.64 161.65 182.81 212.64 222.16 125.96"/><path class="cls-4" d="M47.23,104.92s117.85,91,122.21,94.18,13.32,8.73,27.34,4.37,149.6-47.95,149.6-47.95l9.78-82.07-.88-2.18L220.9,112.73l-102-74.88L47.23,102.51Z"/><path class="cls-7" d="M47.23,102.51s117.85,91,122.21,94.18,13.32,8.73,27.34,4.37,147.7-47.32,147.7-47.32l10.8-82.47L220.9,110.32l-102-74.89Z"/><path class="cls-8" d="M124.65,33.83l-73.74,68,117.84,91s6.43-3,11-3,14.47,9,14.47,9l144.49-47.09,11.48-81.55-12.4-5.51L224.11,105.5,129,33.83Z"/><path class="cls-9" d="M340.14,65.64c-1.11,6.7-2.32,13.38-3.54,20l-3.79,20-4,20-2.07,10-2.17,10,1.72-10,1.82-10,3.79-20,4-20C337.28,78.91,338.66,72.27,340.14,65.64Z"/><path class="cls-9" d="M341.9,66.77c-1,6.6-2,13.19-3.14,19.77l-3.39,19.72-3.59,19.68-1.87,9.83-2,9.81,1.52-9.89,1.62-9.87,3.39-19.72,3.59-19.69C339.3,79.86,340.55,73.31,341.9,66.77Z"/><path class="cls-9" d="M344.2,67.81c-.93,6.6-2,13.19-3,19.78L338,107.34l-3.45,19.71-1.8,9.84-1.9,9.82,1.45-9.9,1.55-9.88,3.24-19.75,3.45-19.71C341.69,80.91,342.89,74.35,344.2,67.81Z"/><path class="cls-9" d="M346.43,68.78c-.87,6.61-1.85,13.21-2.84,19.8l-3.08,19.76-3.29,19.72-1.72,9.85-1.82,9.84,1.38-9.91,1.46-9.89,3.09-19.76,3.29-19.72C344,81.9,345.18,75.33,346.43,68.78Z"/><path class="cls-9" d="M348.64,69.82c-.83,6.69-1.76,13.36-2.71,20l-2.95,20-3.16,20-1.66,10-1.75,10,1.31-10,1.4-10,2.95-20,3.16-20C346.33,83.1,347.43,76.45,348.64,69.82Z"/><path class="cls-10" d="M62.86,98.38S89.5,117.44,112,130.08,176.79,174,179.78,189.8C193.33,176,210.56,158.33,243,154.88s72.59-7.58,78.1-10.79c2.76-13.78,16.77-79.48,16.77-79.48A292.73,292.73,0,0,1,304.51,69c-17.23,1.15-70.75,12.41-80.4,36.53-7.81-19.3-19.29-30.79-41.58-40.89S129,33.83,129,33.83Z"/><path class="cls-11" d="M179.78,189.8C193.33,176,210.56,158.33,243,154.88s72.59-7.58,78.1-10.79c2.76-13.78,16.77-79.48,16.77-79.48A292.73,292.73,0,0,1,304.51,69c-17.23,1.15-70.75,12.41-80.4,36.53Z"/><path class="cls-12" d="M266.38,155.34c-61.26,12.25-86.6,34.46-86.6,34.46,4.59,0,14.47,9,14.47,9l144.49-47.09s-12-5.21-17.69-7.58C314,148.15,301.15,148.19,266.38,155.34Z"/><path class="cls-12" d="M142.79,145.47c-19.52-13.33-79.93-47.09-79.93-47.09l-12,3.44,117.84,91s6.43-3,11-3C182.08,175.56,162.32,158.79,142.79,145.47Z"/><path class="cls-8" d="M142.79,145.47c-19.52-13.33-79.93-47.09-79.93-47.09s77.87,52.14,87.74,58.8,28.49,23.66,29.18,32.62C182.08,175.56,162.32,158.79,142.79,145.47Z"/><path class="cls-8" d="M61.71,101.36s100.38,71,118.07,88.44C166.91,172.57,94.1,120.27,61.71,101.36Z"/><polygon class="cls-8" points="58.41 101.36 73.04 112.05 87.61 122.81 116.65 144.45 145.57 166.26 159.99 177.23 174.34 188.27 159.72 177.59 145.15 166.82 116.1 145.18 87.19 123.37 72.77 112.4 58.41 101.36"/><path class="cls-8" d="M184.37,189.8c5.33-2.89,10.75-5.6,16.18-8.3s10.94-5.22,16.48-7.71c2.76-1.24,5.54-2.45,8.35-3.6s5.63-2.29,8.53-3.28c5.79-1.94,11.68-3.47,17.57-4.9s11.85-2.62,17.8-3.81,11.88-2.39,17.84-3.46,11.92-2.2,17.86-3.36a164.64,164.64,0,0,0,17.68-4.08,73.33,73.33,0,0,1-8.67,2.75c-2.93.8-5.88,1.49-8.83,2.21-5.91,1.34-11.84,2.6-17.76,3.86-11.85,2.52-23.74,4.84-35.49,7.67-5.89,1.38-11.75,2.85-17.47,4.7-2.84.94-5.65,2-8.46,3.17l-8.4,3.43c-5.58,2.31-11.13,4.74-16.65,7.22S189.88,187.28,184.37,189.8Z"/><path class="cls-8" d="M189.08,191.06q16.28-7.4,33.14-13.38,8.42-3,17-5.6c2.84-.9,5.72-1.67,8.59-2.49s5.77-1.53,8.65-2.25c11.57-2.85,23.09-5.84,34.61-8.88,5.76-1.52,11.51-3.06,17.24-4.66,2.87-.79,5.74-1.59,8.6-2.42s5.72-1.68,8.51-2.7c-11.19,4.1-22.71,7.22-34.17,10.46s-23,6.17-34.56,9.09c-11.58,2.76-23,6.25-34.22,10.12q-8.46,2.88-16.79,6.09C200.1,186.54,194.56,188.73,189.08,191.06Z"/><path class="cls-9" d="M179.49,170.71l-.93-1.66c-3.12-5.39-17.74-18.52-32.62-28-14.24-9.09-56.25-36.48-56.67-36.76l-1-.7L141.89,48l.85.58c.35.2,36,20.71,49.94,29.8s24.82,23.24,24.93,23.38l.72,1.21-.15.27c-.21.37-21.33,37.7-38.29,66.77Zm-89.25-66.9c4.66,3,42.77,27.88,56.19,36.44s28.29,21.25,32.51,27.68c16.13-27.67,35.83-62.45,37.75-65.84-1.48-1.89-11.65-14.54-24.51-22.93-13.22-8.63-46-27.55-49.59-29.6Z"/><path class="cls-9" d="M195,170.3l-2.15,2.19,36.08-70,0,0c.13-.12,12.34-12.92,26.52-18.11,21.41-7.28,57.94-10.94,58.31-11l2.41-.25-.21.66s-14.47,46.41-20.21,64.78l-.1.3-2,.2C213.07,144.47,195.21,170,195,170.3ZM229.72,103l-33.05,64.11c7-6.79,31.38-24.53,96.64-29,5.4-17.26,18.14-58.11,19.92-63.82-5.15.55-37.73,4.16-57.4,10.86C242.29,90.13,230.53,102.16,229.72,103Z"/><path class="cls-13" d="M152.58,310.28l-.43,0c3.5-31.74,0-47.25,0-47.4l.43-.1C152.61,262.88,156.09,278.45,152.58,310.28Z"/><path class="cls-13" d="M153.89,310.26l-.43-.05c3.5-31.74,0-47.25,0-47.4l.43-.1C153.92,262.87,157.4,278.43,153.89,310.26Z"/><path class="cls-13" d="M150.16,309.93l-.43-.05c3.5-31.74.3-47.64.27-47.8l.43-.09C150.46,262.15,153.67,278.11,150.16,309.93Z"/><path class="cls-13" d="M138.53,307.52l-.43,0c0-.36,3.6-35.18,12.25-45.49l.33.28C142.12,272.48,138.57,307.17,138.53,307.52Z"/><path class="cls-13" d="M139.26,307.52l-.44,0c0-.36,3.61-35.18,12.25-45.49l.34.28C142.85,272.48,139.29,307.17,139.26,307.52Z"/><path class="cls-13" d="M140.61,308.71l-.44,0c3.3-34.57,11.41-47,11.49-47.08l.36.24C151.94,262,143.89,274.28,140.61,308.71Z"/><path class="cls-13" d="M141.77,309.12l-.44,0c3.3-34.57,11.41-47,11.49-47.08l.36.25C153.1,262.37,145.05,274.69,141.77,309.12Z"/><path class="cls-13" d="M149.15,310.2l-.43-.06c.05-.37,5.2-37.28,1.87-47.37l.41-.14C154.37,272.82,149.36,308.68,149.15,310.2Z"/><path class="cls-13" d="M150.92,310.6l-.43-.05c0-.37,4.47-37.39.94-47.41l.41-.14C155.41,273.11,151.11,309.08,150.92,310.6Z"/><path class="cls-13" d="M142.86,308.68l-.43-.06c.24-1.68,5.87-41.06,8.59-45.58l.38.22C148.72,267.71,142.92,308.27,142.86,308.68Z"/><path class="cls-13" d="M147.46,309.45l-.43-.07c.05-.3,4.88-29.83,4.44-45.53l.44,0C152.35,279.58,147.51,309.15,147.46,309.45Z"/><path class="cls-13" d="M146.75,309.43l-.44-.07c.05-.29,4.88-29.82,4.45-45.53h.43C151.63,279.57,146.79,309.14,146.75,309.43Z"/><path class="cls-13" d="M145.36,309.36l-.44-.05c1.65-15.82,6.78-48.12,6.83-48.44l.44.07C152.13,261.26,147,293.54,145.36,309.36Z"/><path class="cls-13" d="M144.63,309.36l-.43-.05c1.64-15.82,6.77-48.12,6.83-48.44l.43.07C151.41,261.26,146.27,293.54,144.63,309.36Z"/><path class="cls-14" d="M153.3,310.28l-.46,0c3.87-31.74,0-47.24,0-47.39l.44-.12C153.33,262.88,157.18,278.45,153.3,310.28Z"/><path class="cls-14" d="M150.62,309.94l-.45-.06c3.86-31.73,0-47.24,0-47.39l.45-.11C150.66,262.53,154.5,278.1,150.62,309.94Z"/><path class="cls-14" d="M137.78,307.52l-.46,0c0-.35,4-35.18,13.54-45.5l.33.31C141.75,272.49,137.82,307.17,137.78,307.52Z"/><path class="cls-14" d="M138.58,307.52l-.45,0c0-.35,4-35.18,13.53-45.5l.34.31C142.55,272.49,138.62,307.17,138.58,307.52Z"/><path class="cls-14" d="M139.86,308.63l-.45-.05c3.64-34.57,12.6-47,12.69-47.09l.37.28C152.38,261.89,143.49,274.2,139.86,308.63Z"/><path class="cls-14" d="M141,309l-.46-.05c3.64-34.58,12.6-47,12.69-47.09l.37.27C153.48,262.29,144.59,274.61,141,309Z"/><path class="cls-13" d="M149.84,310.29l-.46-.07c.06-.37,5.75-37.27,2.07-47.36l.43-.16C155.6,272.9,150.07,308.77,149.84,310.29Z"/><path class="cls-14" d="M151.47,310.61l-.46-.06c.05-.38,4.94-37.39,1-47.4l.43-.16C156.42,273.1,151.67,309.08,151.47,310.61Z"/><path class="cls-14" d="M142,308.53l-.45-.07c.26-1.67,6.48-41.06,9.49-45.59l.38.26C148.49,267.57,142.09,308.13,142,308.53Z"/><path class="cls-14" d="M148.1,309.61l-.45-.08c0-.29,5.38-29.82,4.9-45.52l.46,0C153.49,279.75,148.15,309.32,148.1,309.61Z"/><path class="cls-14" d="M145.68,309.38l-.44-.09c.06-.31,6.39-31,5.91-46.74h.46C152.09,278.3,145.75,309.07,145.68,309.38Z"/><path class="cls-14" d="M145.32,309.36l-.46-.05c1.82-15.83,7.49-48.12,7.55-48.45l.45.08C152.8,261.27,147.14,293.55,145.32,309.36Z"/><path class="cls-14" d="M143.72,309.36l-.45-.05c1.81-15.83,7.48-48.12,7.54-48.45l.45.08C151.21,261.27,145.54,293.55,143.72,309.36Z"/><g class="cls-15"><path class="cls-10" d="M170.19,84.2a5.23,5.23,0,0,0,3.09-3.07,5,5,0,0,0,.27,1.3,5.14,5.14,0,0,0,9.19,1.15,5.36,5.36,0,0,0,.22,2.71,5.16,5.16,0,0,0,6.62,3.2l.42-.18a5.39,5.39,0,0,0,.29,1.71,5.16,5.16,0,0,0,6.63,3.2,5.34,5.34,0,0,0,1-.47,5.34,5.34,0,0,0-.46,4.53,5.15,5.15,0,0,0,6.18,3.33,5.36,5.36,0,0,0-1,5.28,5.15,5.15,0,0,0,6.62,3.2,5.3,5.3,0,0,0,3.14-6.75,5.16,5.16,0,0,0-6.18-3.34,5.33,5.33,0,0,0,1-5.27,5.15,5.15,0,0,0-6.62-3.2,4.5,4.5,0,0,0-1,.47,5.42,5.42,0,0,0,.46-4.53,5.16,5.16,0,0,0-6.63-3.2l-.41.17a5.34,5.34,0,0,0-.3-1.7,5.14,5.14,0,0,0-9.19-1.16,5.23,5.23,0,0,0-.22-2.7,5.15,5.15,0,0,0-6.62-3.2,5.23,5.23,0,0,0-3.09,3.07,5.48,5.48,0,0,0-.27-1.3,5.17,5.17,0,0,0-6.63-3.2A5.32,5.32,0,0,0,163.56,81,5.16,5.16,0,0,0,170.19,84.2Z"/><path class="cls-10" d="M150.49,89.1a5.3,5.3,0,0,0,3.15-6.68,5.14,5.14,0,0,0,6.18,2.23A5.32,5.32,0,0,0,163,77.9a5.16,5.16,0,0,0-6.62-3.2,5.31,5.31,0,0,0-3.16,6.69A5.16,5.16,0,0,0,147,79.15a5.32,5.32,0,0,0-3.14,6.75A5.16,5.16,0,0,0,150.49,89.1Z"/><path class="cls-10" d="M178.49,175.22a5.23,5.23,0,0,0-3.32-3.25,5.31,5.31,0,0,0,2.7-6.56A5.2,5.2,0,0,0,173,161.9a5.36,5.36,0,0,0,1-5.31,5.16,5.16,0,0,0-6.07-3.36,5.38,5.38,0,0,0,.62-4.78,5.17,5.17,0,0,0-5.78-3.42,5.31,5.31,0,0,0-.17-2.92,5.17,5.17,0,0,0-6.4-3.27,5.39,5.39,0,0,0-.15-3,5.18,5.18,0,0,0-6.12-3.35,5.38,5.38,0,0,0-.16-3,5.19,5.19,0,0,0-5.37-3.48,5.3,5.3,0,0,0,.18-4,5.16,5.16,0,0,0-4.21-3.46,5.37,5.37,0,0,0,.27-4.19,5.22,5.22,0,0,0-2.28-2.79,5.33,5.33,0,0,0,.49-7.93A5.32,5.32,0,0,0,141.8,97a5.25,5.25,0,0,0-.22-.55,5,5,0,0,0,1.12-.26,5.31,5.31,0,0,0,3.14-6.75,5.15,5.15,0,0,0-6.62-3.2A5.31,5.31,0,0,0,136.08,93c.06.18.14.36.22.54a5.07,5.07,0,0,0-1.12.27,5.31,5.31,0,0,0-1.91,8.71,5.33,5.33,0,0,0-.6,9.44,5.36,5.36,0,0,0-1.72,6,5.22,5.22,0,0,0,4.21,3.46,5.35,5.35,0,0,0-.27,4.18,5.17,5.17,0,0,0,5.36,3.48,5.37,5.37,0,0,0-.18,4,5.16,5.16,0,0,0,6.12,3.35,5.37,5.37,0,0,0,.16,3,5.15,5.15,0,0,0,6.4,3.27,5.3,5.3,0,0,0,.16,3,5.16,5.16,0,0,0,5.77,3.42,5.32,5.32,0,0,0,.18,2.92,5.16,5.16,0,0,0,6.07,3.37,5.37,5.37,0,0,0-.62,4.77,5.2,5.2,0,0,0,4.83,3.51,5.36,5.36,0,0,0-1,5.31,5.19,5.19,0,0,0,3.31,3.25,5.32,5.32,0,0,0-2.69,6.56,5.25,5.25,0,0,0,1.8,2.48,5.14,5.14,0,0,0-2.41.26,5.32,5.32,0,0,0-3.14,6.75,5.25,5.25,0,0,0,2.21,2.75,5.07,5.07,0,0,0-4-.24,5.32,5.32,0,0,0-3.14,6.75,5.2,5.2,0,0,0,2.36,2.83,5.06,5.06,0,0,0-2.82.19,5.31,5.31,0,0,0-3.14,6.75,5.2,5.2,0,0,0,2.62,3,5.12,5.12,0,0,0-1.91.3,5.32,5.32,0,0,0-3.14,6.75,5.19,5.19,0,0,0,4.44,3.48l-.3.1a5.31,5.31,0,0,0-3.15,6.75,5.17,5.17,0,0,0,2.09,2.64c2.61-.82,5.12-1.94,7.71-2.79a5.28,5.28,0,0,0,0-3.4,5.22,5.22,0,0,0-4.44-3.49l.31-.09a5.32,5.32,0,0,0,3.14-6.75,5.25,5.25,0,0,0-2.63-3,5.09,5.09,0,0,0,1.91-.3,5.32,5.32,0,0,0,.79-9.58,5,5,0,0,0,2.82-.19,5.32,5.32,0,0,0,3.14-6.75,5.22,5.22,0,0,0-2.21-2.74,5.09,5.09,0,0,0,4,.23,5.34,5.34,0,0,0,1.34-9.23,4.89,4.89,0,0,0,2.41-.26A5.32,5.32,0,0,0,178.49,175.22Z"/><path class="cls-10" d="M211.86,131.21A5,5,0,0,0,213,131a5.32,5.32,0,0,0,3.15-6.75,5.17,5.17,0,0,0-5.46-3.47l.23-.07a5.31,5.31,0,0,0,3.14-6.75,5.15,5.15,0,0,0-6.62-3.2,5.3,5.3,0,0,0-3.14,6.74,5.18,5.18,0,0,0,5.45,3.48l-.23.07a5.32,5.32,0,0,0-3.14,6.75,5.25,5.25,0,0,0,3.1,3.18,5,5,0,0,0-1.13.27A5.31,5.31,0,0,0,205.2,138a5.22,5.22,0,0,0,3,3.15,5,5,0,0,0-1.68.31,5.31,5.31,0,0,0-3.14,6.75,5.2,5.2,0,0,0,2.15,2.7,5.05,5.05,0,0,0-4.19-.32,5.32,5.32,0,0,0-.5,9.74,5.06,5.06,0,0,0-2.9.16,5.35,5.35,0,0,0-2.42,8.13,5,5,0,0,0-4.22-.34,5.32,5.32,0,0,0-1.4,9.17,5.09,5.09,0,0,0-4.34-.41,5.33,5.33,0,0,0-1.93,8.7,5.07,5.07,0,0,0-3.58,0,5.32,5.32,0,0,0-3.14,6.75,5.24,5.24,0,0,0,3.66,3.36,5,5,0,0,0-1.45.3,5.3,5.3,0,0,0-3.14,6.75,5.19,5.19,0,0,0,4.83,3.5,5.18,5.18,0,0,0-3.9,6.95,5.16,5.16,0,0,0,6.63,3.2,5.32,5.32,0,0,0,3.14-6.75,5.2,5.2,0,0,0-4.84-3.5,5,5,0,0,0,.76-.2,5.32,5.32,0,0,0,3.14-6.75,5.22,5.22,0,0,0-3.66-3.36,5.14,5.14,0,0,0,1.46-.3,5.31,5.31,0,0,0,1.92-8.7,5,5,0,0,0,3.58,0,5.32,5.32,0,0,0,1.4-9.17,5.1,5.1,0,0,0,4.34.41,5.35,5.35,0,0,0,2.42-8.13,5,5,0,0,0,4.22.34,5.3,5.3,0,0,0,3.14-6.74,5.22,5.22,0,0,0-2.64-3,5.07,5.07,0,0,0,2.9-.17,5.32,5.32,0,0,0,1-9.46,5.09,5.09,0,0,0,4.19.33,5.31,5.31,0,0,0,3.14-6.75,5.21,5.21,0,0,0-3-3.16,5.22,5.22,0,0,0,1.68-.3A5.31,5.31,0,0,0,215,134.4,5.24,5.24,0,0,0,211.86,131.21Z"/></g><path class="cls-16" d="M154.77,263.08a2.79,2.79,0,1,1-1-3.59A2.65,2.65,0,0,1,154.77,263.08Z"/><path class="cls-17" d="M153.76,259.49a2.8,2.8,0,0,0-2.73-.2,2.89,2.89,0,0,0,4.08,2.57A2.79,2.79,0,0,0,153.76,259.49Z"/><path class="cls-16" d="M153,260.65h0a3.77,3.77,0,0,1-1.17-5.18l6.7-10.62a3.76,3.76,0,0,1,5.18-1.17h0a3.76,3.76,0,0,1,1.17,5.17l-6.7,10.62A3.77,3.77,0,0,1,153,260.65Z"/><path class="cls-17" d="M158.66,244.71a4.93,4.93,0,0,0,2.22,2.94,4.73,4.73,0,0,0,4.36.5,3.74,3.74,0,0,0-6.58-3.44Z"/><path class="cls-18" d="M153.55,258.58h0a1.24,1.24,0,0,1-.39-1.71l6.46-10.23a1.23,1.23,0,0,1,1.7-.38h0a1.23,1.23,0,0,1,.38,1.7l-6.45,10.23A1.23,1.23,0,0,1,153.55,258.58Z"/><path class="cls-16" d="M167.75,245.69c-1,1.66-3.59,1.93-5.68.61s-2.94-3.73-1.9-5.38,3.59-1.93,5.68-.61S168.79,244,167.75,245.69Z"/><path class="cls-18" d="M166.81,243.1c-.4.64-1.59.61-2.66-.06s-1.6-1.73-1.2-2.37,1.59-.61,2.66.06S167.22,242.47,166.81,243.1Z"/><path class="cls-19" d="M164.66,241.81a10.83,10.83,0,0,0,.24-6.9l.43-.16a10.85,10.85,0,0,1,.06,6.27c1.59-1.46,4.19-2.85,5.07-2.89l0,.46a12.74,12.74,0,0,0-5.43,3.44Z"/><path class="cls-20" d="M181.53,82.19a5.4,5.4,0,1,0,3.27-6.9A5.4,5.4,0,0,0,181.53,82.19Z"/><path class="cls-18" d="M184.06,78a2.6,2.6,0,1,0,2.45-2.31A2.4,2.4,0,0,0,184.06,78Z"/><path class="cls-20" d="M171.72,78.25A5.4,5.4,0,1,0,175,71.34,5.41,5.41,0,0,0,171.72,78.25Z"/><path class="cls-18" d="M174.25,74.08a2.6,2.6,0,1,0,2.45-2.32A2.4,2.4,0,0,0,174.25,74.08Z"/><path class="cls-20" d="M161.31,76.79a5.4,5.4,0,1,0,3.27-6.91A5.4,5.4,0,0,0,161.31,76.79Z"/><path class="cls-18" d="M163.84,72.62a2.6,2.6,0,1,0,2.45-2.32A2.4,2.4,0,0,0,163.84,72.62Z"/><path class="cls-20" d="M150.5,77.25a5.4,5.4,0,1,0,3.27-6.91A5.4,5.4,0,0,0,150.5,77.25Z"/><path class="cls-18" d="M153,73.08a2.6,2.6,0,1,0,2.45-2.32A2.4,2.4,0,0,0,153,73.08Z"/><path class="cls-20" d="M140.77,81.8A5.4,5.4,0,1,0,144,74.9,5.4,5.4,0,0,0,140.77,81.8Z"/><path class="cls-18" d="M143.3,77.63a2.6,2.6,0,1,0,2.45-2.31A2.39,2.39,0,0,0,143.3,77.63Z"/><path class="cls-20" d="M132.65,89.06a5.4,5.4,0,1,0,3.28-6.91A5.41,5.41,0,0,0,132.65,89.06Z"/><path class="cls-18" d="M135.18,84.89a2.6,2.6,0,1,0,2.45-2.32A2.4,2.4,0,0,0,135.18,84.89Z"/><path class="cls-20" d="M128.44,96.79a5.4,5.4,0,1,0,3.28-6.9A5.4,5.4,0,0,0,128.44,96.79Z"/><path class="cls-18" d="M131,92.62a2.6,2.6,0,1,0,2.45-2.31A2.39,2.39,0,0,0,131,92.62Z"/><path class="cls-20" d="M126.72,105.6A5.4,5.4,0,1,0,130,98.69,5.4,5.4,0,0,0,126.72,105.6Z"/><path class="cls-18" d="M129.25,101.43a2.6,2.6,0,1,0,2.45-2.32A2.4,2.4,0,0,0,129.25,101.43Z"/><path class="cls-20" d="M127.31,114.55a5.4,5.4,0,1,0,3.27-6.9A5.4,5.4,0,0,0,127.31,114.55Z"/><path class="cls-18" d="M129.83,110.38a2.6,2.6,0,1,0,2.45-2.31A2.41,2.41,0,0,0,129.83,110.38Z"/><path class="cls-20" d="M131.41,122.37a5.4,5.4,0,1,0,3.28-6.9A5.42,5.42,0,0,0,131.41,122.37Z"/><path class="cls-18" d="M133.94,118.2a2.6,2.6,0,1,0,2.45-2.31A2.4,2.4,0,0,0,133.94,118.2Z"/><path class="cls-20" d="M136.82,130a5.4,5.4,0,1,0,3.27-6.9A5.4,5.4,0,0,0,136.82,130Z"/><path class="cls-18" d="M139.35,125.84a2.6,2.6,0,1,0,2.45-2.31A2.38,2.38,0,0,0,139.35,125.84Z"/><path class="cls-20" d="M143.36,136.5a5.4,5.4,0,1,0,3.28-6.9A5.4,5.4,0,0,0,143.36,136.5Z"/><path class="cls-18" d="M145.89,132.33a2.6,2.6,0,1,0,2.45-2.31A2.39,2.39,0,0,0,145.89,132.33Z"/><path class="cls-20" d="M150.2,142.93a5.4,5.4,0,1,0,3.27-6.9A5.4,5.4,0,0,0,150.2,142.93Z"/><path class="cls-18" d="M152.73,138.76a2.6,2.6,0,1,0,2.45-2.31A2.4,2.4,0,0,0,152.73,138.76Z"/><path class="cls-20" d="M156.4,149.42a5.4,5.4,0,1,0,3.27-6.9A5.41,5.41,0,0,0,156.4,149.42Z"/><path class="cls-18" d="M158.93,145.25a2.6,2.6,0,1,0,2.45-2.31A2.39,2.39,0,0,0,158.93,145.25Z"/><path class="cls-20" d="M162.09,157.75a5.4,5.4,0,1,0,3.27-6.91A5.39,5.39,0,0,0,162.09,157.75Z"/><path class="cls-18" d="M164.61,153.58a2.6,2.6,0,1,0,2.45-2.32A2.4,2.4,0,0,0,164.61,153.58Z"/><path class="cls-20" d="M166.05,166.76a5.4,5.4,0,1,0,3.27-6.9A5.4,5.4,0,0,0,166.05,166.76Z"/><path class="cls-18" d="M168.58,162.6a2.6,2.6,0,1,0,2.45-2.32A2.4,2.4,0,0,0,168.58,162.6Z"/><path class="cls-20" d="M166.69,176.81A5.4,5.4,0,1,0,170,169.9,5.41,5.41,0,0,0,166.69,176.81Z"/><path class="cls-18" d="M169.22,172.64a2.59,2.59,0,1,0,2.45-2.32A2.4,2.4,0,0,0,169.22,172.64Z"/><path class="cls-16" d="M162.79,186.51a5.4,5.4,0,1,0,3.27-6.9A5.4,5.4,0,0,0,162.79,186.51Z"/><path class="cls-18" d="M165.31,182.34a2.6,2.6,0,1,0,2.45-2.31A2.41,2.41,0,0,0,165.31,182.34Z"/><path class="cls-16" d="M157.62,196a5.4,5.4,0,1,0,3.27-6.91A5.39,5.39,0,0,0,157.62,196Z"/><path class="cls-18" d="M160.15,191.82a2.59,2.59,0,1,0,2.45-2.32A2.39,2.39,0,0,0,160.15,191.82Z"/><path class="cls-16" d="M153.86,206a5.4,5.4,0,1,0,3.27-6.91A5.39,5.39,0,0,0,153.86,206Z"/><path class="cls-18" d="M156.39,201.81a2.59,2.59,0,1,0,2.45-2.32A2.38,2.38,0,0,0,156.39,201.81Z"/><path class="cls-16" d="M151.33,216.24a5.4,5.4,0,1,0,3.28-6.9A5.4,5.4,0,0,0,151.33,216.24Z"/><path class="cls-18" d="M153.86,212.07a2.6,2.6,0,1,0,2.45-2.31A2.39,2.39,0,0,0,153.86,212.07Z"/><path class="cls-16" d="M152.36,226.81a5.4,5.4,0,1,0,3.28-6.91A5.41,5.41,0,0,0,152.36,226.81Z"/><path class="cls-18" d="M154.89,222.64a2.6,2.6,0,1,0,2.45-2.32A2.41,2.41,0,0,0,154.89,222.64Z"/><path class="cls-16" d="M158,235.8a5.4,5.4,0,1,0,3.28-6.9A5.41,5.41,0,0,0,158,235.8Z"/><path class="cls-18" d="M160.56,231.63a2.6,2.6,0,1,0,2.45-2.31A2.4,2.4,0,0,0,160.56,231.63Z"/><path class="cls-16" d="M167.87,240a5.4,5.4,0,1,0,3.27-6.91A5.41,5.41,0,0,0,167.87,240Z"/><path class="cls-18" d="M170.4,235.81a2.6,2.6,0,1,0,2.45-2.32A2.4,2.4,0,0,0,170.4,235.81Z"/><path class="cls-16" d="M176.37,233.55a5.41,5.41,0,1,0,3.27-6.91A5.4,5.4,0,0,0,176.37,233.55Z"/><path class="cls-18" d="M178.9,229.38a2.6,2.6,0,1,0,2.45-2.32A2.4,2.4,0,0,0,178.9,229.38Z"/><path class="cls-16" d="M175.26,222.9a5.4,5.4,0,1,0,3.27-6.9A5.4,5.4,0,0,0,175.26,222.9Z"/><path class="cls-18" d="M177.79,218.73a2.6,2.6,0,1,0,2.45-2.31A2.39,2.39,0,0,0,177.79,218.73Z"/><path class="cls-16" d="M175.26,212.09a5.4,5.4,0,1,0,3.27-6.9A5.4,5.4,0,0,0,175.26,212.09Z"/><path class="cls-18" d="M177.79,207.92a2.6,2.6,0,1,0,2.45-2.31A2.39,2.39,0,0,0,177.79,207.92Z"/><path class="cls-16" d="M174.28,201.39a5.4,5.4,0,1,0,3.28-6.9A5.41,5.41,0,0,0,174.28,201.39Z"/><path class="cls-18" d="M176.81,197.22a2.6,2.6,0,1,0,2.45-2.31A2.4,2.4,0,0,0,176.81,197.22Z"/><path class="cls-16" d="M175.26,190.75a5.4,5.4,0,1,0,3.27-6.9A5.4,5.4,0,0,0,175.26,190.75Z"/><path class="cls-18" d="M177.79,186.58a2.6,2.6,0,1,0,2.45-2.31A2.39,2.39,0,0,0,177.79,186.58Z"/><path class="cls-20" d="M181,181.89a5.4,5.4,0,1,0,3.28-6.9A5.41,5.41,0,0,0,181,181.89Z"/><path class="cls-18" d="M183.53,177.72a2.6,2.6,0,1,0,2.45-2.31A2.4,2.4,0,0,0,183.53,177.72Z"/><path class="cls-20" d="M187,172.92a5.4,5.4,0,1,0,3.28-6.9A5.42,5.42,0,0,0,187,172.92Z"/><path class="cls-18" d="M189.51,168.75a2.6,2.6,0,1,0,2.45-2.31A2.41,2.41,0,0,0,189.51,168.75Z"/><path class="cls-20" d="M193.91,165a5.4,5.4,0,1,0,3.27-6.9A5.4,5.4,0,0,0,193.91,165Z"/><path class="cls-18" d="M196.44,160.79a2.6,2.6,0,1,0,2.44-2.31A2.4,2.4,0,0,0,196.44,160.79Z"/><path class="cls-20" d="M197.45,154.83a5.4,5.4,0,1,0,3.27-6.91A5.4,5.4,0,0,0,197.45,154.83Z"/><path class="cls-18" d="M200,150.66a2.6,2.6,0,1,0,2.45-2.32A2.4,2.4,0,0,0,200,150.66Z"/><path class="cls-20" d="M202.85,145.49a5.41,5.41,0,1,0,3.28-6.91A5.41,5.41,0,0,0,202.85,145.49Z"/><path class="cls-18" d="M205.38,141.32a2.6,2.6,0,1,0,2.45-2.32A2.41,2.41,0,0,0,205.38,141.32Z"/><path class="cls-20" d="M204.72,135a5.4,5.4,0,1,0,3.27-6.9A5.4,5.4,0,0,0,204.72,135Z"/><path class="cls-18" d="M207.25,130.87a2.6,2.6,0,1,0,2.45-2.31A2.38,2.38,0,0,0,207.25,130.87Z"/><path class="cls-20" d="M205.94,124.61a5.41,5.41,0,1,0,3.28-6.91A5.41,5.41,0,0,0,205.94,124.61Z"/><path class="cls-18" d="M208.47,120.44a2.6,2.6,0,1,0,2.45-2.32A2.4,2.4,0,0,0,208.47,120.44Z"/><path class="cls-20" d="M203.77,114.08a5.4,5.4,0,1,0,3.27-6.91A5.4,5.4,0,0,0,203.77,114.08Z"/><path class="cls-18" d="M206.3,109.91a2.59,2.59,0,1,0,2.45-2.32A2.4,2.4,0,0,0,206.3,109.91Z"/><path class="cls-20" d="M202,103.27a5.4,5.4,0,1,0,3.28-6.91A5.41,5.41,0,0,0,202,103.27Z"/><path class="cls-18" d="M204.54,99.1A2.6,2.6,0,1,0,207,96.78,2.4,2.4,0,0,0,204.54,99.1Z"/><path class="cls-20" d="M196.61,94.46a5.4,5.4,0,1,0,3.27-6.91A5.39,5.39,0,0,0,196.61,94.46Z"/><path class="cls-18" d="M199.13,90.29A2.6,2.6,0,1,0,201.58,88,2.4,2.4,0,0,0,199.13,90.29Z"/><path class="cls-20" d="M189.18,87a5.4,5.4,0,1,0,3.27-6.9A5.4,5.4,0,0,0,189.18,87Z"/><path class="cls-18" d="M191.71,82.86a2.6,2.6,0,1,0,2.45-2.31A2.4,2.4,0,0,0,191.71,82.86Z"/></g></g></g></svg>