<?xml version="1.0"?>
<svg xmlns="http://www.w3.org/2000/svg" xmlns:xlink="http://www.w3.org/1999/xlink" version="1.1" viewBox="0 0 224 224" width="500px" height="500px"><g fill="none" fill-rule="nonzero" stroke="none" stroke-width="1" stroke-linecap="butt" stroke-linejoin="miter" stroke-miterlimit="10" stroke-dasharray="" stroke-dashoffset="0" font-family="none" font-weight="none" font-size="none" text-anchor="none" style="mix-blend-mode: normal"><path d="M0,224v-224h224v224z" fill="none"/><g fill="#ffffff"><path d="M0,31.36v13.04625c30.05184,25.97056 91.98364,79.49522 97.055,83.9125c6.3168,5.49696 12.55268,6.09 14.945,6.09c2.39232,0 8.63268,-0.58877 14.945,-6.08125c4.8832,-4.25152 64.72732,-56.49777 97.055,-84.72625v-12.24125zM224,55.475c-33.20576,28.99008 -86.58279,75.58936 -91.18375,79.59c-8.58816,7.47712 -17.42041,8.28625 -20.81625,8.28625c-3.39584,0 -12.22809,-0.80892 -20.81625,-8.295c-4.76224,-4.13952 -59.62663,-51.55451 -91.18375,-78.82875v136.4125h224z"/></g></g></svg>
